<svg width="50" height="50" viewBox="0 0 50 50" fill="none" xmlns="http://www.w3.org/2000/svg">
<g clip-path="url(#clip0_2617_1562)">
<path fill-rule="evenodd" clip-rule="evenodd" d="M27.6027 7.92092C28.3528 7.159 28.819 6.11901 28.819 4.97113C28.819 2.64423 26.9163 0.75 24.5776 0.75C22.2389 0.75 20.3362 2.64423 20.3362 4.97113C20.3362 6.11901 20.8024 7.159 21.5525 7.92092C18.7387 8.70064 16.8047 10.5481 16.8047 12.756V15.9516C16.8047 16.4121 17.1803 16.7859 17.6431 16.7859H31.5121C31.9749 16.7859 32.3505 16.4121 32.3505 15.9516V12.756C32.3505 10.5481 30.4165 8.70064 27.6027 7.92092ZM22.0131 4.97113C22.0131 3.56298 23.1634 2.41843 24.5776 2.41843C25.9918 2.41843 27.1421 3.56298 27.1421 4.97113C27.1421 6.37818 25.9918 7.52272 24.5776 7.52272C23.1634 7.52272 22.0131 6.37818 22.0131 4.97113ZM24.5776 9.19115C27.8833 9.19115 30.6748 10.824 30.6748 12.756V15.1174H18.4816V12.756C18.4816 10.824 21.273 9.19115 24.5776 9.19115ZM12.276 21.4941C12.276 22.642 11.8099 23.682 11.0597 24.4439C13.8735 25.2236 15.8076 27.0722 15.8064 29.2801V32.4757C15.8064 32.9362 15.4308 33.3099 14.968 33.3099H1.10016C0.637341 33.3099 0.261719 32.9362 0.261719 32.4757V29.2801C0.261719 27.0722 2.19573 25.2236 5.00954 24.4439C4.25941 23.682 3.79324 22.642 3.79324 21.4941C3.79324 19.1672 5.69594 17.2729 8.03464 17.2729C10.3733 17.2729 12.276 19.1672 12.276 21.4941ZM8.03464 18.9414C6.62046 18.9414 5.47012 20.0859 5.47012 21.4941C5.47012 22.9011 6.62046 24.0457 8.03464 24.0457C9.44881 24.0457 10.5992 22.9011 10.5992 21.4941C10.5992 20.0859 9.44881 18.9414 8.03464 18.9414ZM14.1307 29.2801C14.1307 27.3469 11.3392 25.7141 8.03464 25.7141C4.73006 25.7141 1.9386 27.3469 1.9386 29.2801V31.6415H14.1307V29.2801ZM45.237 21.4951C45.237 22.6429 44.7708 23.6829 44.0207 24.4448C46.8334 25.2234 48.7674 27.0721 48.7674 29.2788V32.4745C48.7674 32.9349 48.3917 33.3087 47.9289 33.3087H34.0611C33.5983 33.3087 33.2227 32.9349 33.2227 32.4745V29.2788C33.2227 27.0721 35.1555 25.2246 37.9694 24.4448C37.2192 23.6829 36.7531 22.6429 36.7531 21.4951C36.7531 19.1682 38.6558 17.2739 40.9956 17.2739C43.3343 17.2739 45.237 19.1682 45.237 21.4951ZM40.9956 18.9424C39.5803 18.9424 38.4299 20.0869 38.4299 21.4951C38.4299 22.9021 39.5803 24.0466 40.9956 24.0466C42.4097 24.0466 43.5601 22.9021 43.5601 21.4951C43.5601 20.0869 42.4097 18.9424 40.9956 18.9424ZM47.0905 29.2788C47.0905 27.3479 44.299 25.7151 40.9956 25.7151C37.6899 25.7151 34.8984 27.3479 34.8984 29.2788V31.6402H47.0905V29.2788ZM28.8201 38.018C28.8201 39.167 28.3539 40.2059 27.6027 40.9689C30.4176 41.7475 32.3516 43.595 32.3505 45.804V48.9996C32.3505 49.4601 31.9749 49.8338 31.5121 49.8338H17.6431C17.1803 49.8338 16.8047 49.4601 16.8047 48.9996V45.804C16.8047 43.595 18.7387 41.7475 21.5525 40.9678C20.8024 40.207 20.3362 39.167 20.3362 38.018C20.3362 35.69 22.2389 33.7969 24.5776 33.7969C26.9174 33.7969 28.8201 35.69 28.8201 38.018ZM24.5776 35.4642C23.1634 35.4642 22.0131 36.6087 22.0131 38.0169C22.0131 39.4251 23.1634 40.5696 24.5776 40.5696C25.9929 40.5696 27.1432 39.4251 27.1432 38.0169C27.1432 36.6087 25.9929 35.4642 24.5776 35.4642ZM30.6748 45.8029C30.6748 43.8709 27.8822 42.238 24.5776 42.238C21.273 42.238 18.4827 43.8709 18.4827 45.8029V48.1643H30.6748V45.8029ZM35.8604 7.65822C38.4294 9.28995 40.654 11.5034 42.2951 14.0583C42.455 14.3075 42.7255 14.4432 43.0028 14.4432C43.157 14.4432 43.3124 14.4009 43.4522 14.3119C43.8435 14.0639 43.9575 13.5478 43.7082 13.1596C41.9374 10.4022 39.5361 8.01304 36.7625 6.25118C36.3713 6.00203 35.8537 6.11771 35.6055 6.50589C35.3551 6.89408 35.4691 7.41018 35.8604 7.65822ZM6.14635 14.4455C5.99208 14.4455 5.83557 14.4033 5.69583 14.3143C5.30567 14.0662 5.19164 13.5501 5.43982 13.162C7.21061 10.4024 9.61191 8.01318 12.3844 6.25243C12.7734 6.00439 13.2932 6.11784 13.5425 6.50714C13.7918 6.89533 13.6778 7.41143 13.2865 7.65947C10.7187 9.2912 8.49399 11.5047 6.85399 14.0596C6.69413 14.3087 6.42248 14.4455 6.14635 14.4455ZM13.2915 42.9266C10.7214 41.2938 8.49448 39.0803 6.85449 36.5221C6.60519 36.1316 6.08648 36.0204 5.69632 36.2673C5.30617 36.5154 5.19102 37.0315 5.44032 37.4186C7.21111 40.1793 9.61464 42.5707 12.3893 44.3314C12.5291 44.4204 12.6856 44.4627 12.8398 44.4627C13.1171 44.4627 13.3876 44.327 13.5475 44.0767C13.7968 43.6896 13.6816 43.1747 13.2915 42.9266ZM42.2999 36.5233C42.5481 36.134 43.0645 36.0183 43.4569 36.2685C43.8471 36.5166 43.9622 37.0327 43.7118 37.4209C41.9421 40.1794 39.5408 42.5674 36.7695 44.3282C36.6298 44.4172 36.4744 44.4594 36.3201 44.4594C36.0429 44.4594 35.7723 44.3237 35.6125 44.0735C35.3632 43.6864 35.4772 43.1703 35.8685 42.9223C38.4363 41.2905 40.6599 39.0782 42.2999 36.5233Z" fill="#144E72"/>
<path d="M27.6027 7.92092L27.4602 7.78061L27.2217 8.02287L27.5493 8.11366L27.6027 7.92092ZM21.5525 7.92092L21.6059 8.11366L21.9335 8.02287L21.695 7.78061L21.5525 7.92092ZM30.6748 15.1174V15.3174H30.8748V15.1174H30.6748ZM18.4816 15.1174H18.2816V15.3174H18.4816V15.1174ZM11.0597 24.4439L10.9172 24.3036L10.6787 24.5458L11.0063 24.6366L11.0597 24.4439ZM15.8064 29.2801L15.6064 29.28V29.2801H15.8064ZM5.00954 24.4439L5.06294 24.6366L5.39057 24.5458L5.15206 24.3036L5.00954 24.4439ZM1.9386 31.6415H1.7386V31.8415H1.9386V31.6415ZM14.1307 31.6415V31.8415H14.3307V31.6415H14.1307ZM44.0207 24.4448L43.8781 24.3045L43.6396 24.5469L43.9673 24.6376L44.0207 24.4448ZM37.9694 24.4448L38.0228 24.6376L38.3504 24.5468L38.1119 24.3045L37.9694 24.4448ZM34.8984 31.6402H34.6984V31.8402H34.8984V31.6402ZM47.0905 31.6402V31.8402H47.2905V31.6402H47.0905ZM27.6027 40.9689L27.4602 40.8286L27.2215 41.071L27.5494 41.1617L27.6027 40.9689ZM32.3505 45.804L32.1505 45.8039V45.804H32.3505ZM21.5525 40.9678L21.6059 41.1605L21.9338 41.0697L21.6949 40.8274L21.5525 40.9678ZM18.4827 48.1643H18.2827V48.3643H18.4827V48.1643ZM30.6748 48.1643V48.3643H30.8748V48.1643H30.6748ZM42.2951 14.0583L42.4635 13.9503L42.4634 13.9502L42.2951 14.0583ZM35.8604 7.65822L35.9676 7.4894L35.9674 7.48931L35.8604 7.65822ZM43.4522 14.3119L43.3451 14.143L43.3448 14.1432L43.4522 14.3119ZM43.7082 13.1596L43.5399 13.2677L43.7082 13.1596ZM36.7625 6.25118L36.6551 6.41988L36.6553 6.42L36.7625 6.25118ZM35.6055 6.50589L35.7735 6.61431L35.774 6.61362L35.6055 6.50589ZM5.69583 14.3143L5.80325 14.1456L5.80313 14.1455L5.69583 14.3143ZM5.43982 13.162L5.2715 13.0539L5.27132 13.0542L5.43982 13.162ZM12.3844 6.25243L12.4916 6.42126L12.4919 6.42107L12.3844 6.25243ZM13.5425 6.50714L13.3741 6.615L13.3742 6.61521L13.5425 6.50714ZM13.2865 7.65947L13.1794 7.49055L13.1793 7.49067L13.2865 7.65947ZM6.85399 14.0596L6.68569 13.9515L6.68566 13.9516L6.85399 14.0596ZM6.85449 36.5221L6.68592 36.6297L6.68612 36.63L6.85449 36.5221ZM13.2915 42.9266L13.3988 42.7578L13.3987 42.7578L13.2915 42.9266ZM5.69632 36.2673L5.58936 36.0983L5.58902 36.0986L5.69632 36.2673ZM5.44032 37.4186L5.60866 37.3106L5.60846 37.3103L5.44032 37.4186ZM12.3893 44.3314L12.4967 44.1627L12.4965 44.1626L12.3893 44.3314ZM13.5475 44.0767L13.3793 43.9684L13.3789 43.9691L13.5475 44.0767ZM43.4569 36.2685L43.3494 36.4372L43.3496 36.4373L43.4569 36.2685ZM42.2999 36.5233L42.4682 36.6313L42.4685 36.6308L42.2999 36.5233ZM43.7118 37.4209L43.5438 37.3125L43.5435 37.3129L43.7118 37.4209ZM36.7695 44.3282L36.6623 44.1594L36.6621 44.1595L36.7695 44.3282ZM35.6125 44.0735L35.781 43.9658L35.7806 43.9652L35.6125 44.0735ZM35.8685 42.9223L35.9756 43.0912L35.9757 43.0911L35.8685 42.9223ZM28.619 4.97113C28.619 6.06359 28.1756 7.05397 27.4602 7.78061L27.7452 8.06124C28.5301 7.26404 29.019 6.17444 29.019 4.97113H28.619ZM24.5776 0.95C26.8067 0.95 28.619 2.75557 28.619 4.97113H29.019C29.019 2.53289 27.0259 0.55 24.5776 0.55V0.95ZM20.5362 4.97113C20.5362 2.75557 22.3485 0.95 24.5776 0.95V0.55C22.1293 0.55 20.1362 2.53289 20.1362 4.97113H20.5362ZM21.695 7.78061C20.9796 7.05397 20.5362 6.06359 20.5362 4.97113H20.1362C20.1362 6.17444 20.6251 7.26404 21.41 8.06124L21.695 7.78061ZM17.0047 12.756C17.0047 10.6791 18.8314 8.88249 21.6059 8.11366L21.4991 7.72818C18.646 8.51878 16.6047 10.4171 16.6047 12.756H17.0047ZM17.0047 15.9516V12.756H16.6047V15.9516H17.0047ZM17.6431 16.5859C17.2898 16.5859 17.0047 16.3007 17.0047 15.9516H16.6047C16.6047 16.5235 17.0708 16.9859 17.6431 16.9859V16.5859ZM31.5121 16.5859H17.6431V16.9859H31.5121V16.5859ZM32.1505 15.9516C32.1505 16.3007 31.8654 16.5859 31.5121 16.5859V16.9859C32.0844 16.9859 32.5505 16.5235 32.5505 15.9516H32.1505ZM32.1505 12.756V15.9516H32.5505V12.756H32.1505ZM27.5493 8.11366C30.3238 8.88249 32.1505 10.6791 32.1505 12.756H32.5505C32.5505 10.4171 30.5092 8.51878 27.6561 7.72818L27.5493 8.11366ZM24.5776 2.21843C23.0539 2.21843 21.8131 3.45162 21.8131 4.97113H22.2131C22.2131 3.67433 23.273 2.61843 24.5776 2.61843V2.21843ZM27.3421 4.97113C27.3421 3.45162 26.1013 2.21843 24.5776 2.21843V2.61843C25.8822 2.61843 26.9421 3.67433 26.9421 4.97113H27.3421ZM24.5776 7.72272C26.1013 7.72272 27.3421 6.48959 27.3421 4.97113H26.9421C26.9421 6.26677 25.8823 7.32272 24.5776 7.32272V7.72272ZM21.8131 4.97113C21.8131 6.48959 23.0539 7.72272 24.5776 7.72272V7.32272C23.2729 7.32272 22.2131 6.26677 22.2131 4.97113H21.8131ZM30.8748 12.756C30.8748 11.6873 30.1058 10.7425 28.9668 10.0764C27.821 9.40644 26.2609 8.99115 24.5776 8.99115V9.39115C26.2 9.39115 27.6884 9.79228 28.7649 10.4217C29.848 11.0551 30.4748 11.8927 30.4748 12.756H30.8748ZM30.8748 15.1174V12.756H30.4748V15.1174H30.8748ZM18.4816 15.3174H30.6748V14.9174H18.4816V15.3174ZM18.2816 12.756V15.1174H18.6816V12.756H18.2816ZM24.5776 8.99115C22.8948 8.99115 21.335 9.40645 20.1894 10.0764C19.0506 10.7425 18.2816 11.6873 18.2816 12.756H18.6816C18.6816 11.8927 19.3083 11.0551 20.3913 10.4217C21.4676 9.79228 22.9558 9.39115 24.5776 9.39115V8.99115ZM11.2023 24.5842C11.9871 23.787 12.476 22.6974 12.476 21.4941H12.076C12.076 22.5865 11.6326 23.5769 10.9172 24.3036L11.2023 24.5842ZM16.0064 29.2802C16.0076 26.9413 13.9663 25.0417 11.1131 24.2511L11.0063 24.6366C13.7808 25.4054 15.6075 27.2032 15.6064 29.28L16.0064 29.2802ZM16.0064 32.4757V29.2801H15.6064V32.4757H16.0064ZM14.968 33.5099C15.5403 33.5099 16.0064 33.0476 16.0064 32.4757H15.6064C15.6064 32.8248 15.3213 33.1099 14.968 33.1099V33.5099ZM1.10016 33.5099H14.968V33.1099H1.10016V33.5099ZM0.0617187 32.4757C0.0617187 33.0476 0.527837 33.5099 1.10016 33.5099V33.1099C0.746844 33.1099 0.461719 32.8248 0.461719 32.4757H0.0617187ZM0.0617187 29.2801V32.4757H0.461719V29.2801H0.0617187ZM4.95613 24.2511C2.10299 25.0417 0.0617187 26.9413 0.0617187 29.2801H0.461719C0.461719 27.2032 2.28847 25.4054 5.06294 24.6366L4.95613 24.2511ZM3.59324 21.4941C3.59324 22.6974 4.08216 23.787 4.86702 24.5842L5.15206 24.3036C4.43666 23.5769 3.99324 22.5865 3.99324 21.4941H3.59324ZM8.03464 17.0729C5.58637 17.0729 3.59324 19.0558 3.59324 21.4941H3.99324C3.99324 19.2785 5.80551 17.4729 8.03464 17.4729V17.0729ZM12.476 21.4941C12.476 19.0558 10.4829 17.0729 8.03464 17.0729V17.4729C10.2638 17.4729 12.076 19.2785 12.076 21.4941H12.476ZM5.67012 21.4941C5.67012 20.1973 6.73002 19.1414 8.03464 19.1414V18.7414C6.5109 18.7414 5.27012 19.9746 5.27012 21.4941H5.67012ZM8.03464 23.8457C6.72997 23.8457 5.67012 22.7897 5.67012 21.4941H5.27012C5.27012 23.0125 6.51096 24.2457 8.03464 24.2457V23.8457ZM10.3992 21.4941C10.3992 22.7897 9.33931 23.8457 8.03464 23.8457V24.2457C9.55831 24.2457 10.7992 23.0125 10.7992 21.4941H10.3992ZM8.03464 19.1414C9.33925 19.1414 10.3992 20.1973 10.3992 21.4941H10.7992C10.7992 19.9746 9.55837 18.7414 8.03464 18.7414V19.1414ZM8.03464 25.9141C9.65642 25.9141 11.1446 26.3152 12.2209 26.9448C13.3039 27.5783 13.9307 28.4162 13.9307 29.2801H14.3307C14.3307 28.2108 13.5617 27.2657 12.4229 26.5995C11.2772 25.9294 9.71743 25.5141 8.03464 25.5141V25.9141ZM2.1386 29.2801C2.1386 28.4162 2.76539 27.5783 3.84839 26.9448C4.92465 26.3152 6.41285 25.9141 8.03464 25.9141V25.5141C6.35184 25.5141 4.79203 25.9294 3.64642 26.5995C2.50754 27.2657 1.7386 28.2108 1.7386 29.2801H2.1386ZM2.1386 31.6415V29.2801H1.7386V31.6415H2.1386ZM14.1307 31.4415H1.9386V31.8415H14.1307V31.4415ZM13.9307 29.2801V31.6415H14.3307V29.2801H13.9307ZM44.1632 24.5852C44.948 23.788 45.437 22.6984 45.437 21.4951H45.037C45.037 22.5875 44.5935 23.5779 43.8781 24.3045L44.1632 24.5852ZM48.9674 29.2788C48.9674 26.9411 46.9261 25.0416 44.074 24.2521L43.9673 24.6376C46.7406 25.4053 48.5674 27.203 48.5674 29.2788H48.9674ZM48.9674 32.4745V29.2788H48.5674V32.4745H48.9674ZM47.9289 33.5087C48.5013 33.5087 48.9674 33.0463 48.9674 32.4745H48.5674C48.5674 32.8235 48.2822 33.1087 47.9289 33.1087V33.5087ZM34.0611 33.5087H47.9289V33.1087H34.0611V33.5087ZM33.0227 32.4745C33.0227 33.0463 33.4888 33.5087 34.0611 33.5087V33.1087C33.7078 33.1087 33.4227 32.8235 33.4227 32.4745H33.0227ZM33.0227 29.2788V32.4745H33.4227V29.2788H33.0227ZM37.9159 24.2521C35.0628 25.0427 33.0227 26.9411 33.0227 29.2788H33.4227C33.4227 27.203 35.2483 25.4064 38.0228 24.6376L37.9159 24.2521ZM36.5531 21.4951C36.5531 22.6984 37.042 23.788 37.8268 24.5852L38.1119 24.3045C37.3965 23.5779 36.9531 22.5875 36.9531 21.4951H36.5531ZM40.9956 17.0739C38.5462 17.0739 36.5531 19.0568 36.5531 21.4951H36.9531C36.9531 19.2795 38.7653 17.4739 40.9956 17.4739V17.0739ZM45.437 21.4951C45.437 19.0568 43.4438 17.0739 40.9956 17.0739V17.4739C43.2247 17.4739 45.037 19.2795 45.037 21.4951H45.437ZM38.6299 21.4951C38.6299 20.1983 39.6898 19.1424 40.9956 19.1424V18.7424C39.4708 18.7424 38.2299 19.9755 38.2299 21.4951H38.6299ZM40.9956 23.8466C39.6897 23.8466 38.6299 22.7906 38.6299 21.4951H38.2299C38.2299 23.0136 39.4708 24.2466 40.9956 24.2466V23.8466ZM43.3601 21.4951C43.3601 22.7907 42.3002 23.8466 40.9956 23.8466V24.2466C42.5192 24.2466 43.7601 23.0135 43.7601 21.4951H43.3601ZM40.9956 19.1424C42.3002 19.1424 43.3601 20.1983 43.3601 21.4951H43.7601C43.7601 19.9756 42.5193 18.7424 40.9956 18.7424V19.1424ZM40.9956 25.9151C42.6168 25.9151 44.1047 26.3162 45.1809 26.9455C46.2638 27.5788 46.8905 28.4161 46.8905 29.2788H47.2905C47.2905 28.2106 46.5215 27.2661 45.3828 26.6002C44.2373 25.9304 42.6778 25.5151 40.9956 25.5151V25.9151ZM35.0984 29.2788C35.0984 28.4162 35.7251 27.5788 36.8083 26.9455C37.8847 26.3162 39.3732 25.9151 40.9956 25.9151V25.5151C39.3122 25.5151 37.7522 25.9304 36.6064 26.6002C35.4675 27.2661 34.6984 28.2106 34.6984 29.2788H35.0984ZM35.0984 31.6402V29.2788H34.6984V31.6402H35.0984ZM47.0905 31.4402H34.8984V31.8402H47.0905V31.4402ZM46.8905 29.2788V31.6402H47.2905V29.2788H46.8905ZM27.7452 41.1092C28.5312 40.311 29.0201 39.2225 29.0201 38.018H28.6201C28.6201 39.1115 28.1767 40.1008 27.4602 40.8286L27.7452 41.1092ZM32.5505 45.8041C32.5517 43.464 30.5103 41.5656 27.656 40.7761L27.5494 41.1617C30.325 41.9294 32.1516 43.726 32.1505 45.8039L32.5505 45.8041ZM32.5505 48.9996V45.804H32.1505V48.9996H32.5505ZM31.5121 50.0338C32.0844 50.0338 32.5505 49.5715 32.5505 48.9996H32.1505C32.1505 49.3487 31.8654 49.6338 31.5121 49.6338V50.0338ZM17.6431 50.0338H31.5121V49.6338H17.6431V50.0338ZM16.6047 48.9996C16.6047 49.5715 17.0708 50.0338 17.6431 50.0338V49.6338C17.2898 49.6338 17.0047 49.3487 17.0047 48.9996H16.6047ZM16.6047 45.804V48.9996H17.0047V45.804H16.6047ZM21.4991 40.7751C18.646 41.5657 16.6047 43.464 16.6047 45.804H17.0047C17.0047 43.726 18.8314 41.9294 21.6059 41.1605L21.4991 40.7751ZM20.1362 38.018C20.1362 39.2224 20.6251 40.312 21.4101 41.1082L21.6949 40.8274C20.9797 40.1019 20.5362 39.1116 20.5362 38.018H20.1362ZM24.5776 33.5969C22.1294 33.5969 20.1362 35.5786 20.1362 38.018H20.5362C20.5362 35.8014 22.3484 33.9969 24.5776 33.9969V33.5969ZM29.0201 38.018C29.0201 35.5786 27.0269 33.5969 24.5776 33.5969V33.9969C26.8079 33.9969 28.6201 35.8014 28.6201 38.018H29.0201ZM22.2131 38.0169C22.2131 36.7201 23.273 35.6642 24.5776 35.6642V35.2642C23.0539 35.2642 21.8131 36.4974 21.8131 38.0169H22.2131ZM24.5776 40.3696C23.273 40.3696 22.2131 39.3137 22.2131 38.0169H21.8131C21.8131 39.5364 23.0539 40.7696 24.5776 40.7696V40.3696ZM26.9432 38.0169C26.9432 39.3136 25.8834 40.3696 24.5776 40.3696V40.7696C26.1024 40.7696 27.3432 39.5365 27.3432 38.0169H26.9432ZM24.5776 35.6642C25.8834 35.6642 26.9432 36.7201 26.9432 38.0169H27.3432C27.3432 36.4973 26.1024 35.2642 24.5776 35.2642V35.6642ZM24.5776 42.438C26.1994 42.438 27.6879 42.8392 28.7644 43.4686C29.8478 44.102 30.4748 44.9397 30.4748 45.8029H30.8748C30.8748 44.7341 30.1054 43.7893 28.9663 43.1233C27.8205 42.4533 26.2604 42.038 24.5776 42.038V42.438ZM18.6827 45.8029C18.6827 44.9396 19.3092 44.102 20.3919 43.4686C21.4679 42.8392 22.9558 42.438 24.5776 42.438V42.038C22.8948 42.038 21.3353 42.4533 20.1899 43.1233C19.0514 43.7894 18.2827 44.7342 18.2827 45.8029H18.6827ZM18.6827 48.1643V45.8029H18.2827V48.1643H18.6827ZM30.6748 47.9643H18.4827V48.3643H30.6748V47.9643ZM30.4748 45.8029V48.1643H30.8748V45.8029H30.4748ZM42.4634 13.9502C40.8066 11.3709 38.5611 9.13668 35.9676 7.4894L35.7531 7.82705C38.2976 9.44322 40.5015 11.636 42.1269 14.1664L42.4634 13.9502ZM43.0028 14.2432C42.7902 14.2432 42.5847 14.1393 42.4635 13.9503L42.1268 14.1663C42.3253 14.4756 42.6608 14.6432 43.0028 14.6432V14.2432ZM43.3448 14.1432C43.2381 14.2112 43.1201 14.2432 43.0028 14.2432V14.6432C43.194 14.6432 43.3868 14.5907 43.5596 14.4806L43.3448 14.1432ZM43.5399 13.2677C43.7291 13.5623 43.6429 13.9542 43.3451 14.143L43.5593 14.4809C44.044 14.1736 44.1859 13.5333 43.8765 13.0515L43.5399 13.2677ZM36.6553 6.42C39.4044 8.16631 41.7848 10.5348 43.5399 13.2677L43.8765 13.0515C42.09 10.2697 39.6678 7.85978 36.8698 6.08236L36.6553 6.42ZM35.774 6.61362C35.9628 6.31832 36.3569 6.23002 36.6551 6.41988L36.87 6.08248C36.3856 5.77403 35.7445 5.9171 35.437 6.39816L35.774 6.61362ZM35.9674 7.48931C35.6696 7.3005 35.5836 6.90879 35.7735 6.61431L35.4374 6.39748C35.1265 6.87938 35.2686 7.51987 35.7533 7.82714L35.9674 7.48931ZM5.5884 14.483C5.76143 14.5932 5.95544 14.6455 6.14635 14.6455V14.2455C6.02871 14.2455 5.90971 14.2134 5.80325 14.1456L5.5884 14.483ZM5.27132 13.0542C4.96345 13.5358 5.10512 14.1757 5.58852 14.4831L5.80313 14.1455C5.50622 13.9568 5.41984 13.5645 5.60833 13.2697L5.27132 13.0542ZM12.2771 6.0836C9.48018 7.85991 7.05802 10.2698 5.2715 13.0539L5.60815 13.27C7.36321 10.5349 9.74364 8.16645 12.4916 6.42126L12.2771 6.0836ZM13.711 6.39929C13.402 5.91683 12.7586 5.77662 12.2768 6.08379L12.4919 6.42107C12.7882 6.23216 13.1845 6.31885 13.3741 6.615L13.711 6.39929ZM13.3936 7.82839C13.8783 7.52112 14.0202 6.88084 13.7108 6.39907L13.3742 6.61521C13.5634 6.90982 13.4773 7.30174 13.1794 7.49055L13.3936 7.82839ZM7.0223 14.1676C8.64657 11.6372 10.8504 9.44445 13.3938 7.82827L13.1793 7.49067C10.5869 9.13794 8.34141 11.3721 6.68569 13.9515L7.0223 14.1676ZM6.14635 14.6455C6.48758 14.6455 6.82408 14.4766 7.02232 14.1676L6.68566 13.9516C6.56418 14.1409 6.35737 14.2455 6.14635 14.2455V14.6455ZM6.68612 36.63C8.3419 39.2129 10.5897 41.4471 13.1842 43.0954L13.3987 42.7578C10.8531 41.1405 8.64706 38.9478 7.02286 36.4141L6.68612 36.63ZM5.80328 36.4363C6.10173 36.2475 6.49677 36.3335 6.68592 36.6297L7.02305 36.4144C6.71362 35.9298 6.07123 35.7934 5.58936 36.0983L5.80328 36.4363ZM5.60846 37.3103C5.41981 37.0174 5.50615 36.6252 5.80362 36.4361L5.58902 36.0986C5.10618 36.4055 4.96223 37.0456 5.27217 37.5269L5.60846 37.3103ZM12.4965 44.1626C9.74635 42.4174 7.36371 40.0467 5.60866 37.3106L5.27197 37.5265C7.0585 40.3118 9.48293 42.724 12.2822 44.5003L12.4965 44.1626ZM12.8398 44.2627C12.7222 44.2627 12.6032 44.2305 12.4967 44.1627L12.2819 44.5001C12.4549 44.6103 12.6489 44.6627 12.8398 44.6627V44.2627ZM13.3789 43.9691C13.2576 44.1589 13.0523 44.2627 12.8398 44.2627V44.6627C13.1819 44.6627 13.5176 44.495 13.716 44.1844L13.3789 43.9691ZM13.1842 43.0954C13.4817 43.2846 13.5679 43.6756 13.3793 43.9684L13.7156 44.185C14.0256 43.7037 13.8815 43.0647 13.3988 42.7578L13.1842 43.0954ZM43.5645 36.0999C43.0789 35.7902 42.4388 35.9333 42.1312 36.4157L42.4685 36.6308C42.6573 36.3346 43.0502 36.2463 43.3494 36.4372L43.5645 36.0999ZM43.8799 37.5293C44.191 37.0471 44.0473 36.4068 43.5642 36.0998L43.3496 36.4373C43.6469 36.6263 43.7335 37.0183 43.5438 37.3125L43.8799 37.5293ZM36.8768 44.497C39.6726 42.7207 42.0947 40.3119 43.8802 37.5289L43.5435 37.3129C41.7896 40.0468 39.4091 42.4142 36.6623 44.1594L36.8768 44.497ZM36.3201 44.6594C36.5113 44.6594 36.7041 44.6069 36.8769 44.4969L36.6621 44.1595C36.5554 44.2274 36.4375 44.2594 36.3201 44.2594V44.6594ZM35.4439 44.1811C35.6423 44.4918 35.9781 44.6594 36.3201 44.6594V44.2594C36.1077 44.2594 35.9023 44.1557 35.781 43.9658L35.4439 44.1811ZM35.7614 42.7533C35.2769 43.0605 35.1346 43.7009 35.4443 44.1818L35.7806 43.9652C35.5918 43.6719 35.6775 43.2801 35.9756 43.0912L35.7614 42.7533ZM42.1316 36.4152C40.5073 38.9457 38.3046 41.1373 35.7612 42.7535L35.9757 43.0911C38.5681 41.4438 40.8125 39.2107 42.4682 36.6313L42.1316 36.4152Z" fill="#144E72"/>
</g>
<defs>
<clipPath id="clip0_2617_1562">
<rect width="49.1525" height="50" fill="white"/>
</clipPath>
</defs>
</svg>
