<svg width="60" height="50" viewBox="0 0 60 50" fill="none" xmlns="http://www.w3.org/2000/svg">
<path fill-rule="evenodd" clip-rule="evenodd" d="M34.3069 45.8936L34.5742 45.57C35.3361 44.6507 36.0601 43.7771 36.6515 42.6236C36.6829 42.5625 36.747 42.4295 36.8176 42.2839C36.9899 41.9276 37.1996 41.4954 37.3558 41.2799L37.5267 41.0449L37.8019 41.1382C38.0278 41.2145 38.4221 41.4949 38.8006 41.8059C39.2476 42.1726 39.699 42.6031 39.8185 42.7836L39.9764 43.0222L39.7967 43.2464C39.4404 43.6921 38.3309 44.5905 37.1844 45.3297C36.2842 45.9097 35.3435 46.4043 34.6863 46.5329L33.603 46.7449L34.3065 45.8936H34.3069ZM18.6495 42.8233C18.7476 42.6301 19.1144 42.2712 19.5074 41.9393C19.9251 41.5869 20.3983 41.2394 20.6129 41.1487L20.9352 41.0121L22.5048 43.7745C22.8367 44.273 23.5497 45.1565 23.9143 45.6079C24.0538 45.7806 24.1463 45.8953 24.1712 45.9368L24.7106 46.8343L23.7128 46.5142C23.2409 46.3628 22.7586 46.1409 22.2967 45.8949L22.2963 45.8962C21.8523 45.6598 21.4171 45.3942 21.0303 45.1504C20.6705 44.9237 20.0891 44.5072 19.5924 44.1042C19.192 43.7797 18.8392 43.4561 18.6787 43.228L18.5427 43.0344L18.6495 42.8238V42.8233ZM22.7664 39.8368C22.8667 39.8124 23.1053 39.7178 23.4053 39.5987C23.9099 39.3985 24.5754 39.1342 25.1568 38.9764C25.5201 38.8778 26.2745 38.6898 26.9667 38.5817C27.4307 38.5093 27.8681 38.4748 28.1533 38.5293L28.4747 38.5908L28.4691 46.9708L28.0264 46.9137C27.6845 46.8696 27.1673 46.512 26.6352 46.0558C25.8655 45.3955 25.0116 44.5032 24.7089 44.1491C24.4062 43.7946 23.7176 42.8626 23.1882 41.9581C22.8266 41.3405 22.5344 40.7239 22.469 40.2773L22.4171 39.9227L22.7669 39.8373L22.7664 39.8368ZM30.0238 46.5425L30.0286 38.5036L30.4172 38.4984C31.0705 38.4897 32.3958 38.7308 33.5703 39.0522C34.6183 39.3392 35.5729 39.7047 35.8948 40.0409L36.0575 40.211L35.9855 40.4347C35.7286 41.2367 35.1503 42.259 34.4827 43.2045C33.7809 44.198 32.9702 45.1203 32.3217 45.6232C32.245 45.6829 32.1215 45.7872 31.9824 45.9058C31.5476 46.2752 30.958 46.7763 30.5424 46.9163L30.0234 47.0911L30.0238 46.5425ZM21.6321 35.1106C22.1458 35.1521 22.7028 35.2232 23.2619 35.2942C23.7468 35.3557 24.234 35.4181 24.7665 35.4643L27.9353 35.651L28.0072 35.6693C28.067 35.6846 28.0949 35.6915 28.1442 35.7116C28.2013 35.7352 28.2205 35.7487 28.258 35.774L28.4638 35.9127L28.4704 36.2345C28.4822 36.6209 28.487 36.7766 28.145 36.9149C28.0264 36.9628 27.9013 36.9698 27.6924 36.9816C27.4939 36.9929 27.1974 37.0095 26.7543 37.0719C25.2754 37.2803 24.5358 37.5568 23.674 37.8791C23.2492 38.0378 22.7957 38.2075 22.2252 38.3832L21.9278 38.4753L21.7699 38.2057C21.6404 37.9851 21.5139 37.5267 21.4149 37.0383C21.2998 36.4704 21.2147 35.839 21.2078 35.5106L21.1986 35.074L21.6321 35.1089V35.1106ZM36.3104 38.4238C35.8931 38.3004 35.5032 38.1464 35.1046 37.989C34.6157 37.7962 34.112 37.5978 33.5511 37.4548C33.047 37.3265 32.5398 37.2184 32.026 37.1329C31.511 37.0474 30.9807 36.9824 30.432 36.9401L30.0884 36.914L30.0129 35.6492L30.4015 35.6205C30.8241 35.5895 31.2715 35.5642 31.7159 35.5398C32.3788 35.5027 33.0343 35.4665 33.6828 35.4024C34.2751 35.344 34.873 35.2598 35.4709 35.1756C35.9428 35.1093 36.4151 35.0426 36.8765 34.9898L37.3571 34.9345L37.313 35.4172C37.2572 36.03 37.1373 36.5572 37.02 37.0753C36.9415 37.4216 36.8634 37.764 36.8106 38.1059L36.7417 38.5516L36.3104 38.4238ZM14.82 33.569C15.4886 33.7792 16.2225 33.9842 16.9727 34.1717C17.7284 34.3605 18.4956 34.5302 19.2234 34.6689L19.4807 34.7181L19.5366 34.9733C19.6168 35.3392 19.6709 35.757 19.7245 36.1717C19.7655 36.4896 19.8065 36.8058 19.8632 37.1059C19.9352 37.4844 20.0337 37.8704 20.1301 38.2481C20.2047 38.5411 20.2784 38.829 20.3438 39.1382L20.4001 39.4046L20.1707 39.5516C19.9583 39.6877 19.6962 39.8625 19.4511 40.0379C19.2636 40.1722 19.0839 40.3083 18.9417 40.4295L17.4476 41.7056L17.192 41.4893C16.6233 41.0082 15.7594 39.4147 15.1292 37.7518C14.5923 36.3353 14.2125 34.8424 14.3097 33.9061L14.3599 33.4251L14.8191 33.5694L14.82 33.569ZM40.8264 41.4949L38.9999 40.0287C38.9022 39.9589 38.8442 39.9206 38.788 39.8835C38.6096 39.7662 38.4308 39.6484 38.2677 39.4927L38.1264 39.358L38.1473 39.1656C38.187 38.8045 38.3078 38.351 38.4277 37.904C38.5058 37.6118 38.5834 37.3217 38.6332 37.0714C38.6859 36.808 38.7265 36.4761 38.7675 36.1403C38.8272 35.6506 38.8883 35.1534 38.996 34.7866L39.0588 34.5729L44.3262 33.2066L44.2569 33.7792C44.1574 34.603 44.0536 35.2886 43.9036 35.9628C43.7545 36.6336 43.5613 37.2794 43.2826 38.0239C43.0998 38.5128 42.6912 39.368 42.2813 40.1024C41.938 40.7178 41.5826 41.2642 41.3314 41.484L41.0828 41.7016L40.8255 41.4949H40.8264ZM54.4951 28.384C54.6194 28.7242 54.9744 29.3853 55.3381 30.0631C55.8318 30.9833 56.3416 31.9322 56.3931 32.3383L56.4493 32.7814L51.676 32.7809L51.758 32.3195C51.7877 32.1512 52.304 31.0714 52.8117 30.0783C53.2574 29.2065 53.7105 28.3749 53.8466 28.2397L54.2831 27.8057L54.4947 28.3849L54.4951 28.384ZM12.0158 19.1353C12.7785 19.523 13.6778 19.8998 14.5657 20.2723C15.1152 20.503 15.6608 20.7319 16.2025 20.9766C17.3726 21.506 22.0512 23.6072 25.391 25.0617C27.2872 25.8877 28.7416 26.5083 28.838 26.5113C29.2327 26.5244 37.4273 22.8314 40.4627 21.4637C40.815 21.305 41.0519 21.1982 41.4278 21.0302C42.8923 20.2758 44.7623 19.578 46.3184 18.9011L46.3192 30.8446L46.0135 30.9144C45.6821 30.9902 45.2529 31.1551 44.8469 31.3112C44.6293 31.3949 44.4173 31.4765 44.2263 31.5424C39.597 33.146 34.8141 33.989 30.0103 34.0945C25.1507 34.2013 20.2697 33.5533 15.5047 32.1747C14.6547 31.9288 13.8662 31.6462 13.0751 31.3622C12.6385 31.2057 12.2003 31.0482 11.724 30.8886L11.4558 30.7988L11.444 18.8444L12.0158 19.1349V19.1353ZM52.5491 23.5327C52.4545 22.7961 52.7916 22.2889 53.2766 22.0228C53.4672 21.9182 53.6809 21.8536 53.8989 21.8301C54.1122 21.807 54.3324 21.8235 54.5413 21.8807C55.0865 22.0294 55.5439 22.4446 55.6107 23.1354C55.6813 23.8646 55.3455 24.3652 54.8706 24.6278C54.6826 24.7316 54.4724 24.7952 54.2574 24.8188C54.0463 24.8419 53.8287 24.8249 53.6229 24.7677C53.0891 24.6199 52.6364 24.21 52.5491 23.5322V23.5327ZM4.44177 13.4196C4.79154 13.1688 11.7092 10.1374 14.98 8.7039C15.8562 8.32012 16.4737 8.0493 16.6124 7.98693L16.9604 7.8308C19.1763 6.83602 28.5711 2.6201 28.9087 2.62839C29.224 2.63668 34.3396 4.93238 37.9171 6.53816C39.4871 7.24292 40.7566 7.81249 41.1831 7.99478C41.9302 8.31402 46.4069 10.28 49.7035 11.7571C51.6843 12.6446 53.25 13.3664 53.369 13.4789L53.8012 13.8871L41.1399 19.4829C40.3475 19.8427 35.6911 21.9404 32.3588 23.3962C30.4739 24.2196 28.9933 24.8349 28.8088 24.821C28.487 24.797 7.7436 15.5422 4.82337 14.2391L3.88267 13.8195L4.44177 13.4192V13.4196ZM9.88274 18.3939C9.90454 19.0961 9.89364 21.3778 9.88187 23.8484C9.86529 27.2767 9.84698 31.0727 9.90934 31.4333C9.99613 31.9349 10.7672 32.1961 11.4903 32.4412C11.8278 32.5554 12.1571 32.6671 12.448 32.8132L12.6525 32.9157L12.6656 33.1433C12.7349 34.3605 12.9002 35.5058 13.1645 36.5882C13.4279 37.6667 13.7912 38.6863 14.2587 39.6576C14.5178 40.1962 14.9648 40.969 15.4484 41.706C15.8649 42.3406 16.3037 42.9406 16.6656 43.3284L17.701 44.4003C18.5448 45.1404 19.179 45.6895 19.8876 46.1788C20.5976 46.6694 21.394 47.1073 22.5724 47.6315C25.667 49.0083 29.0347 49.3493 32.2293 48.7628C35.4543 48.171 38.5023 46.6337 40.9145 44.2629L41.0427 44.1369C41.3384 43.8478 41.6201 43.5721 41.8861 43.2411L42.1304 42.9398C42.3523 42.6663 42.5534 42.4191 42.7845 42.1072C43.6951 40.8778 44.4631 39.3549 45.0013 37.7282C45.5242 36.1473 45.8282 34.4765 45.8339 32.8904L45.8347 32.6401L46.0589 32.5336C46.4488 32.3487 46.7593 32.2297 47.0144 32.1324C47.4584 31.9628 47.686 31.8755 47.7711 31.6182C47.9032 31.2188 47.8971 30.4242 47.884 28.7961C47.8788 28.1245 47.8722 27.3373 47.8722 26.7224C47.8722 25.974 47.8845 25.015 47.8967 24.0499C47.9207 22.1615 47.9451 20.24 47.8657 18.4349L47.8526 18.1318L48.1435 18.0416C48.6041 17.8989 49.4946 17.4816 50.3729 17.0695C51.4166 16.5801 52.4445 16.0982 52.8492 16.0407L53.2984 15.9766V16.4314C53.2984 17.3176 53.3071 17.9857 53.3137 18.4894C53.3241 19.2849 53.3294 19.6857 53.2827 19.9343C53.2038 20.3569 53.0529 20.4223 52.7498 20.5527C52.656 20.5933 52.5321 20.6465 52.3791 20.7516C52.2295 20.8545 52.11 20.9374 52.0049 21.0241C51.9085 21.104 51.8261 21.1855 51.7441 21.2893C51.5622 21.5191 51.3943 21.7546 51.263 22.0263C51.1353 22.2902 51.0402 22.5937 50.9979 22.9701C50.9591 23.3142 50.9826 23.6557 51.0524 23.9723C51.127 24.3116 51.2548 24.623 51.4161 24.879C51.4999 25.012 51.5875 25.1328 51.68 25.2444C51.7694 25.3521 51.8605 25.4477 51.9552 25.5336C52.0799 25.647 52.195 25.7255 52.3123 25.8061C52.4362 25.8907 52.5627 25.9771 52.7153 26.1075L52.8906 26.2571L52.8448 26.4839C52.7772 26.8192 52.0075 28.3033 51.2085 29.8437C50.3594 31.4809 49.4763 33.1843 49.4436 33.4211C49.4144 33.634 49.4615 33.8197 49.5539 33.9641C49.656 34.1224 49.8116 34.2341 49.9813 34.2781C50.1252 34.3156 52.0371 34.3379 53.9813 34.3418C55.9434 34.3457 57.9151 34.3291 58.1227 34.2886C58.2958 34.255 58.4537 34.1608 58.5632 34.023C58.6643 33.8952 58.7245 33.7269 58.7189 33.5293C58.7097 33.2223 57.7673 31.4224 56.8828 29.7334C56.1405 28.3164 55.438 26.9741 55.3084 26.5126L55.2387 26.2636L55.438 26.1005C55.5736 25.9893 55.7031 25.8995 55.8309 25.8109C56.1275 25.6047 56.4153 25.4045 56.6992 24.9378C56.8614 24.6714 56.9988 24.3595 57.083 24.0159C57.1563 23.7171 57.1894 23.3922 57.1628 23.0516C57.1375 22.7237 57.0512 22.421 56.9338 22.1476C56.8135 21.8672 56.6595 21.6164 56.5021 21.3992C56.2134 21.0006 55.9692 20.8702 55.557 20.6504C55.4157 20.5749 55.2561 20.4899 55.0651 20.3796L54.868 20.2657L54.854 15.1423L55.0459 15.028C55.2696 14.895 55.5073 14.7934 55.7437 14.6922C56.1798 14.5055 56.6133 14.3202 56.7271 14.0092C56.8514 13.6686 56.7764 13.4405 56.6142 13.2761C56.4044 13.0633 56.0407 12.9028 55.714 12.7628C54.987 12.4506 54.2583 12.1322 53.5295 11.8086C52.8566 11.5103 52.1388 11.1867 51.3795 10.8396C49.7026 10.0733 47.9852 9.31839 46.2695 8.56435H46.2682C45.1444 8.07023 44.0231 7.57742 42.7414 7.00393L29.7547 1.25943C28.8476 0.852532 28.7652 0.891346 28.1346 1.18965C28.0207 1.24329 27.8903 1.30522 27.7059 1.38808L1.75269 12.8919H1.74964C1.54161 12.9822 1.37545 13.0855 1.24811 13.1963C1.09328 13.3311 1.00519 13.4711 0.972481 13.6058C0.941953 13.7323 0.957653 13.8631 1.01086 13.9857C1.04313 14.0607 1.09285 14.1366 1.15739 14.2103C1.39813 14.4868 3.63583 15.4358 4.74793 15.9072L5.24422 16.1187L9.87271 18.1445L9.88056 18.3935L9.88274 18.3939Z" fill="#144E72" stroke="#144E72" stroke-width="0.4"/>
</svg>
