<svg width="36" height="50" viewBox="0 0 36 50" fill="none" xmlns="http://www.w3.org/2000/svg">
<g clip-path="url(#clip0_2617_1588)">
<path d="M0.617188 18.152C0.617188 28.8638 10.0388 30.9274 10.691 47.2687C10.7307 48.1965 11.2891 49.1459 12.2276 49.573C13.2697 50.055 13.7124 49.7152 22.4199 49.8242C23.8276 49.8242 24.9862 48.7331 25.0475 47.3508C25.099 46.2977 25.2181 45.2447 25.3707 44.1939C25.6244 42.4571 25.9981 40.7263 26.5213 39.0218C29.8745 28.0418 37.8465 24.3876 34.362 13.0961C28.4899 -5.72357 0.617188 -1.46618 0.617188 18.152ZM22.6934 47.8065C22.6098 47.8417 22.5193 47.864 22.4218 47.864C10.9968 47.8395 12.8967 48.7601 12.4663 44.7715H18.2266C18.7676 44.7715 19.2062 44.3337 19.2062 43.7938C19.2062 43.2539 18.7676 42.8161 18.2266 42.8161H12.2065C12.1391 42.4028 11.7636 40.5087 11.5639 39.7211H24.2802C22.9708 44.5928 23.4116 47.4874 22.6934 47.8065ZM16.8967 2.94467V8.18598C16.3888 8.05278 16.1808 7.97806 15.5157 7.78777C11.8651 6.74549 9.80972 10.0873 10.9942 12.6275C12.4566 15.7698 15.5622 14.3413 16.8967 13.9858V19.3364H11.9304C11.6424 19.3364 11.3688 19.463 11.1827 19.6821C10.9966 19.9017 10.9167 20.1915 10.9641 20.475C11.1609 21.6545 11.371 22.3087 11.6875 23.1367C11.8245 23.5133 11.8892 23.7196 11.8892 23.9643C11.8892 25.9981 8.71744 26.1359 8.65278 24.0159C8.63322 23.4125 9.0814 22.7229 9.52137 20.5042C9.5783 20.2172 9.50366 19.9198 9.31758 19.6935C8.80266 19.0674 8.49662 19.4545 2.63729 19.3365C2.6285 19.24 2.6245 19.1513 2.61774 19.0584C2.119 10.5194 8.662 3.47019 16.8967 2.94467ZM2.92098 21.2919H7.33193C6.90484 22.9141 6.45673 23.5865 6.82726 24.9177C7.8627 28.8854 13.8486 28.0483 13.8486 23.9643C13.8486 23.076 13.409 22.2848 13.1411 21.2919H16.8967V24.7577C16.8967 25.0451 17.0235 25.3182 17.2431 25.5039C17.8637 26.0261 19.8526 25.3245 20.6014 25.039C21.1444 24.8319 21.3375 24.7988 21.5339 24.7988C23.8052 24.7988 23.5574 28.3575 21.3232 28.0132C20.2551 27.8489 16.8967 26.192 16.8967 28.121V37.7495H11.0124C8.11705 28.4707 4.21605 27.5267 2.92098 21.2919ZM12.7674 11.7976C12.2168 10.6112 13.2111 9.3338 14.4285 9.51993C15.5587 9.69394 17.6889 10.8288 18.4983 10.1676C18.725 9.98193 18.8561 9.70457 18.8561 9.41193V2.92964C27.1205 3.44135 33.8179 10.7299 33.1107 19.3365H28.5931C28.7046 18.9125 28.8108 18.5707 28.904 18.2704C30.8543 11.9883 22.0764 11.5092 22.0764 16.664C22.0764 17.6615 22.4479 18.0921 22.7839 19.3365H18.8561V12.7752C18.8561 12.4878 18.7293 12.2147 18.5097 12.029C17.1834 10.9125 13.8933 14.2125 12.7674 11.7976ZM24.8657 37.7495H18.8561V29.3469C19.2785 29.4577 19.6196 29.5632 19.9195 29.6558C22.6629 30.5047 24.4974 29.226 24.9844 27.3213C25.5553 24.9931 23.8247 22.8434 21.5339 22.8434C20.5898 22.8434 19.9937 23.2458 18.8561 23.5504V21.2918H23.9946C26.1103 21.2918 24.0358 17.5288 24.0358 16.664C24.0358 14.8258 26.7719 14.4174 27.2297 16.3135C27.5027 17.4572 25.1777 21.2918 27.3647 21.2918H32.8261C32.3937 23.3322 31.5532 25.268 30.3659 26.9451C27.8898 30.4395 26.0392 34.1599 24.8657 37.7495Z" fill="#144E72"/>
</g>
<defs>
<clipPath id="clip0_2617_1588">
<rect width="35.8491" height="50" fill="white"/>
</clipPath>
</defs>
</svg>
