<svg width="50" height="50" viewBox="0 0 50 50" fill="none" xmlns="http://www.w3.org/2000/svg">
<path d="M7 36H5C3.67392 36 2.40215 35.4732 1.46447 34.5355C0.526784 33.5979 0 32.3261 0 31V25C0 23.6739 0.526784 22.4021 1.46447 21.4645C2.40215 20.5268 3.67392 20 5 20H7C7.26522 20 7.51957 20.1054 7.70711 20.2929C7.89464 20.4804 8 20.7348 8 21V35C8 35.2652 7.89464 35.5196 7.70711 35.7071C7.51957 35.8946 7.26522 36 7 36ZM5 22C4.20435 22 3.44129 22.3161 2.87868 22.8787C2.31607 23.4413 2 24.2044 2 25V31C2 31.7956 2.31607 32.5587 2.87868 33.1213C3.44129 33.6839 4.20435 34 5 34H6V22H5Z" fill="#144E72"/>
<path d="M9 38C8.20435 38 7.44129 37.6839 6.87868 37.1213C6.31607 36.5587 6 35.7956 6 35V21C6 20.2044 6.31607 19.4413 6.87868 18.8787C7.44129 18.3161 8.20435 18 9 18C9.79565 18 10.5587 18.3161 11.1213 18.8787C11.6839 19.4413 12 20.2044 12 21V35C12 35.7956 11.6839 36.5587 11.1213 37.1213C10.5587 37.6839 9.79565 38 9 38ZM9 20C8.73478 20 8.48043 20.1054 8.29289 20.2929C8.10536 20.4804 8 20.7348 8 21V35C8 35.2652 8.10536 35.5196 8.29289 35.7071C8.48043 35.8946 8.73478 36 9 36C9.26522 36 9.51957 35.8946 9.70711 35.7071C9.89464 35.5196 10 35.2652 10 35V21C10 20.7348 9.89464 20.4804 9.70711 20.2929C9.51957 20.1054 9.26522 20 9 20Z" fill="#144E72"/>
<path d="M45 36H43C42.7348 36 42.4804 35.8946 42.2929 35.7071C42.1054 35.5196 42 35.2652 42 35V21C42 20.7348 42.1054 20.4804 42.2929 20.2929C42.4804 20.1054 42.7348 20 43 20H45C46.3261 20 47.5979 20.5268 48.5355 21.4645C49.4732 22.4021 50 23.6739 50 25V31C50 32.3261 49.4732 33.5979 48.5355 34.5355C47.5979 35.4732 46.3261 36 45 36ZM44 34H45C45.7956 34 46.5587 33.6839 47.1213 33.1213C47.6839 32.5587 48 31.7956 48 31V25C48 24.2044 47.6839 23.4413 47.1213 22.8787C46.5587 22.3161 45.7956 22 45 22H44V34Z" fill="#144E72"/>
<path d="M41 38C40.2044 38 39.4413 37.6839 38.8787 37.1213C38.3161 36.5587 38 35.7956 38 35V21C38 20.2044 38.3161 19.4413 38.8787 18.8787C39.4413 18.3161 40.2044 18 41 18C41.7956 18 42.5587 18.3161 43.1213 18.8787C43.6839 19.4413 44 20.2044 44 21V35C44 35.7956 43.6839 36.5587 43.1213 37.1213C42.5587 37.6839 41.7956 38 41 38ZM41 20C40.7348 20 40.4804 20.1054 40.2929 20.2929C40.1054 20.4804 40 20.7348 40 21V35C40 35.2652 40.1054 35.5196 40.2929 35.7071C40.4804 35.8946 40.7348 36 41 36C41.2652 36 41.5196 35.8946 41.7071 35.7071C41.8946 35.5196 42 35.2652 42 35V21C42 20.7348 41.8946 20.4804 41.7071 20.2929C41.5196 20.1054 41.2652 20 41 20Z" fill="#144E72"/>
<path d="M8.00002 21H6.00002V19C5.9939 15.0523 7.23262 11.2032 9.54002 8L11.16 9.16C9.10197 12.028 7.99662 15.47 8.00002 19V21Z" fill="#144E72"/>
<path d="M43.9998 21H41.9998V19C42.0074 15.4631 40.9019 12.0136 38.8398 9.14L40.4598 8C42.7672 11.2032 44.006 15.0523 43.9998 19V21Z" fill="#144E72"/>
<path d="M12.9999 10.6799C11.7277 10.6777 10.5084 10.1705 9.60989 9.26986C9.4512 9.10038 9.35642 8.88095 9.34182 8.64923C9.32723 8.4175 9.39372 8.18792 9.5299 7.99986C11.1314 5.75012 13.2041 3.87653 15.6036 2.50957C18.0031 1.14261 20.6717 0.315134 23.4236 0.084776C26.1756 -0.145582 28.9446 0.226712 31.538 1.17573C34.1313 2.12475 36.4867 3.62768 38.4399 5.57986C39.1742 6.33174 39.8433 7.14467 40.4399 8.00986C40.5748 8.20216 40.6377 8.43581 40.6176 8.66986C40.5975 8.90391 40.4957 9.12341 40.3299 9.28986C39.4726 10.1597 38.312 10.6642 37.0911 10.6977C35.8702 10.7313 34.6837 10.2913 33.7799 9.46986C31.3794 7.25754 28.2344 6.02935 24.9699 6.02935C21.7054 6.02935 18.5604 7.25754 16.1599 9.46986C15.2964 10.2566 14.168 10.6887 12.9999 10.6799ZM11.7199 8.35986C12.2126 8.6261 12.7753 8.73436 13.3316 8.66997C13.888 8.60557 14.411 8.37162 14.8299 7.99986C17.6003 5.44456 21.231 4.02579 24.9999 4.02579C28.7688 4.02579 32.3995 5.44456 35.1699 7.99986C35.584 8.36842 36.1005 8.60219 36.6506 8.67007C37.2008 8.73795 37.7586 8.63672 38.2499 8.37986C37.8604 7.89599 37.443 7.4352 36.9999 6.99986C35.311 5.31233 33.2856 3.99946 31.0556 3.14676C28.8255 2.29405 26.4409 1.92064 24.0569 2.05082C21.673 2.18101 19.3432 2.81188 17.2193 3.90236C15.0954 4.99283 13.225 6.51845 11.7299 8.37986L11.7199 8.35986Z" fill="#144E72"/>
<path d="M31 48H28V46H31C32.4445 46 33.8749 45.7155 35.2095 45.1627C36.5441 44.6099 37.7567 43.7996 38.7782 42.7782C39.7996 41.7567 40.6099 40.5441 41.1627 39.2095C41.7155 37.8749 42 36.4445 42 35H44C44 38.4478 42.6304 41.7544 40.1924 44.1924C37.7544 46.6304 34.4478 48 31 48Z" fill="#144E72"/>
<path d="M26 50H24C23.2044 50 22.4413 49.6839 21.8787 49.1213C21.3161 48.5587 21 47.7956 21 47C21 46.2044 21.3161 45.4413 21.8787 44.8787C22.4413 44.3161 23.2044 44 24 44H26C26.7956 44 27.5587 44.3161 28.1213 44.8787C28.6839 45.4413 29 46.2044 29 47C29 47.7956 28.6839 48.5587 28.1213 49.1213C27.5587 49.6839 26.7956 50 26 50ZM24 46C23.7348 46 23.4804 46.1054 23.2929 46.2929C23.1054 46.4804 23 46.7348 23 47C23 47.2652 23.1054 47.5196 23.2929 47.7071C23.4804 47.8946 23.7348 48 24 48H26C26.2652 48 26.5196 47.8946 26.7071 47.7071C26.8946 47.5196 27 47.2652 27 47C27 46.7348 26.8946 46.4804 26.7071 46.2929C26.5196 46.1054 26.2652 46 26 46H24Z" fill="#144E72"/>
<path d="M25.0007 39.9998C24.9113 40.0144 24.8201 40.0144 24.7307 39.9998C21.9327 39.203 19.47 37.5173 17.7147 35.1973C15.9593 32.8773 15.0067 30.049 15.0007 27.1398V18.5598C14.9924 18.3353 15.0599 18.1146 15.1923 17.9332C15.3247 17.7518 15.5144 17.6203 15.7307 17.5598L24.7307 15.0098C24.9073 14.9603 25.0941 14.9603 25.2707 15.0098L34.2707 17.5598C34.487 17.6203 34.6766 17.7518 34.8091 17.9332C34.9415 18.1146 35.009 18.3353 35.0007 18.5598V27.1398C34.9947 30.049 34.0421 32.8773 32.2867 35.1973C30.5314 37.5173 28.0687 39.203 25.2707 39.9998C25.1813 40.0144 25.0901 40.0144 25.0007 39.9998ZM17.0007 19.3098V27.1398C17.0052 29.5656 17.7834 31.9268 19.2222 33.8799C20.6609 35.8331 22.6852 37.2763 25.0007 37.9998C27.3096 37.2784 29.3292 35.8412 30.7674 33.8961C32.2056 31.951 32.9877 29.5988 33.0007 27.1798V19.3098L25.0007 16.9998L17.0007 19.3098Z" fill="#144E72"/>
<path d="M24.0002 30.9997C23.8686 31.0005 23.7381 30.9752 23.6163 30.9255C23.4944 30.8757 23.3836 30.8024 23.2902 30.7097L20.7902 28.2097C20.6019 28.0214 20.4961 27.766 20.4961 27.4997C20.4961 27.2334 20.6019 26.978 20.7902 26.7897C20.9785 26.6014 21.2339 26.4956 21.5002 26.4956C21.7665 26.4956 22.0219 26.6014 22.2102 26.7897L24.0002 28.5897L28.2902 24.2897C28.3834 24.1965 28.4941 24.1225 28.6159 24.072C28.7378 24.0216 28.8683 23.9956 29.0002 23.9956C29.132 23.9956 29.2626 24.0216 29.3844 24.072C29.5063 24.1225 29.6169 24.1965 29.7102 24.2897C29.8034 24.3829 29.8774 24.4936 29.9278 24.6154C29.9783 24.7373 30.0043 24.8678 30.0043 24.9997C30.0043 25.1316 29.9783 25.2621 29.9278 25.3839C29.8774 25.5058 29.8034 25.6165 29.7102 25.7097L24.7102 30.7097C24.6167 30.8024 24.5059 30.8757 24.3841 30.9255C24.2623 30.9752 24.1318 31.0005 24.0002 30.9997Z" fill="#144E72"/>
</svg>
