<svg width="80" height="37" fill="none" xmlns="http://www.w3.org/2000/svg"><path d="M19.56 10.147c0-.147-.052-.256-.158-.329-.11-.075-.275-.113-.498-.113-.24 0-.462.048-.667.142a1.766 1.766 0 00-.567.428c-.173.19-.3.393-.384.608a1.74 1.74 0 00-.113.68v.028c.795-.17 1.392-.375 1.79-.616.399-.241.598-.517.598-.828zM75.73 32.96v1.368c0 .173 0 .397.324.443l.115.016v.218h-.031l-.263-.008a6.32 6.32 0 00-.217-.005h-.139c-.062 0-.13.002-.212.005l-.254.007h-.031v-.217l.114-.016c.323-.046.323-.27.323-.443v-1.833a.248.248 0 00-.112-.098.658.658 0 00-.205-.044l-.12-.01v-.22l.262.008c.186.005.31.009.431.006l.392-.014.82 1.934.044-.109a36.888 36.888 0 00.694-1.803l.007-.021.469.013c.082.002.171 0 .288-.004.09-.003.196-.007.329-.009h.03v.219l-.12.01c-.317.031-.317.138-.317.353.005.571 0 1.145 0 1.717 0 .215 0 .322.317.352l.12.011v.218h-.03c-.097 0-.193 0-.292-.004l-.153-.006a5.873 5.873 0 00-.153-.002h-.336c-.052 0-.103 0-.153.002l-.153.006a4.998 4.998 0 01-.146.004h-.176v-.218l.12-.01c.318-.031.318-.138.318-.353v-1.428c-.25.64-.321.805-.386.954-.07.16-.133.303-.413 1.036l-.008.02h-.248l-.849-2.044zm-4.272.052a22.064 22.064 0 00.013-.857v-.03h.259l.045.142c.089-.06.183-.105.287-.136.117-.035.246-.053.395-.053.334 0 .578.082.746.203.21.151.302.365.302.56a.6.6 0 01-.188.433.81.81 0 01-.322.187.85.85 0 01.442.188c.16.138.24.33.24.53 0 .25-.138.472-.378.63-.228.15-.55.242-.931.242-.337 0-.596-.068-.778-.17-.22-.123-.33-.297-.33-.462 0-.1.033-.185.09-.246a.308.308 0 01.23-.096c.109 0 .189.034.245.086a.32.32 0 01.092.297.468.468 0 01-.016.06l-.011.036a.143.143 0 00-.005.03c0 .054.043.1.106.135a.612.612 0 00.284.067c.157 0 .32-.05.435-.165a.573.573 0 00.158-.423c0-.168-.04-.329-.143-.44-.085-.09-.216-.148-.407-.148h-.284v-.255h.258a.441.441 0 00.337-.128.527.527 0 00.12-.367c0-.172-.045-.3-.118-.387a.41.41 0 00-.322-.142.514.514 0 00-.39.184c-.095.11-.168.272-.198.5l-.003.027h-.26v-.032zm-5.115-.888c.096 0 .192 0 .29.005h.002c.1.004.204.009.305.009h.337c.052 0 .103-.002.153-.003l.152-.006.147-.004h.176v.218l-.12.01c-.318.031-.318.138-.318.353v1.33l1.277-1.333v-.022c0-.153-.03-.231-.084-.271-.053-.041-.135-.048-.233-.056l-.12-.011v-.219h.03c.096 0 .193 0 .292.005l.153.006c.05.002.1.003.153.003h.336c.102 0 .206-.005.306-.009h.001l.145-.004h.176v.218l-.12.01c-.318.031-.318.138-.318.354.006.57 0 1.144 0 1.715 0 .216 0 .323.317.353l.12.011v.218h-.03c-.096 0-.192 0-.29-.004h-.002a7.538 7.538 0 00-.305-.008h-.337c-.052 0-.103.001-.153.003L68.63 35a5.43 5.43 0 01-.147.004h-.176v-.217l.12-.011c.318-.031.318-.138.318-.353v-1.325l-1.277 1.329v.038c0 .142.03.216.083.255.054.04.136.047.234.055l.121.011v.218h-.03c-.097 0-.194 0-.292-.004l-.153-.006a5.884 5.884 0 00-.153-.002h-.337c-.1 0-.204.004-.304.008h-.002a4.959 4.959 0 01-.146.004h-.176v-.218l.12-.01c.318-.031.318-.138.318-.354-.006-.57 0-1.144 0-1.715 0-.215 0-.322-.317-.353l-.12-.011v-.219h.03zm-2.847 1.329a.98.98 0 00.095.005c.135 0 .313-.027.437-.144.086-.082.147-.21.147-.406a.63.63 0 00-.08-.327c-.07-.11-.201-.202-.45-.202-.072 0-.112.003-.13.018-.016.014-.02.045-.02.103v.953zm0 .961l-.001.05c-.003.157-.005.279.36.31l.12.012v.218h-.03c-.105 0-.206 0-.313-.005h-.012a8.174 8.174 0 00-.315-.008h-.337c-.101 0-.206.005-.306.008a4.036 4.036 0 01-.146.004h-.176v-.217l.12-.011c.318-.031.318-.137.318-.353-.006-.57 0-1.145 0-1.716 0-.216 0-.322-.317-.353l-.12-.01v-.22l.03.001c.184.002.314.006.418.01.119.002.204.005.292.003l.802-.013c.404 0 .668.102.832.246a.68.68 0 01.232.506v.01a.717.717 0 01-.194.502c-.166.175-.47.32-1.027.32h-.23v.706zm-3.856-2.06l-.024.002c-.099.01-.206.021-.206.127 0 .026.009.06.02.097a.68.68 0 00.052.12l.515.905.088-.17c.357-.695.434-.843.434-.943v-.009a.124.124 0 00-.05-.09c-.037-.029-.096-.049-.187-.049l-.079.004v-.226l.033.003a5.714 5.714 0 00.435.013l.548-.014v.22l-.028.002c-.226.018-.324.209-.633.81-.18.348-.359.698-.537 1.048-.222.436-.437.86-.923.86a.442.442 0 01-.283-.087.301.301 0 01-.114-.238c0-.09.036-.168.095-.222a.35.35 0 01.238-.087.293.293 0 01.21.088l.038.031c.035.03.067.058.097.058.08 0 .144-.12.193-.212l.067-.123-.922-1.626a.66.66 0 00-.175-.207.508.508 0 00-.224-.093l-.026-.005v-.218l.032.002a13.221 13.221 0 00.672.013l.738-.013v.218l-.095.011zm-5.315.603c.016-.224.021-.374.032-.735l.003-.098.977.014h.816l.976-.014.002.088c.011.368.016.52.032.745l.003.032h-.231l-.022-.117a.51.51 0 00-.194-.336c-.112-.08-.277-.127-.512-.127-.105 0-.105.028-.104.104.004.636 0 1.274 0 1.91 0 .215 0 .322.317.352l.12.011v.218h-.03c-.096 0-.193 0-.292-.004l-.152-.006-.153-.002h-.337c-.051 0-.102 0-.153.002L55.27 35a4.979 4.979 0 01-.146.004h-.176v-.218l.12-.01c.318-.031.318-.138.318-.353a93.641 93.641 0 010-1.911c0-.076 0-.104-.105-.104-.235 0-.4.047-.511.128a.51.51 0 00-.195.336l-.022.117h-.23l.002-.032zm-6.004-1.441a.33.33 0 01.08-.22.26.26 0 01.199-.088c.073 0 .139.024.187.063.049.04.08.097.08.16a.18.18 0 01-.01.055.225.225 0 01-.025.051l-.023.028c-.014.015-.027.03-.027.044 0 .033.04.078.112.113a.598.598 0 00.261.054.6.6 0 00.262-.054c.072-.035.111-.08.111-.113 0-.013-.013-.029-.027-.044l-.022-.028a.228.228 0 01-.025-.051.168.168 0 01-.01-.054c0-.064.031-.12.08-.16a.295.295 0 01.187-.063c.084 0 .152.034.2.087a.33.33 0 01.079.22c0 .124-.087.259-.257.355a1.18 1.18 0 01-.578.13 1.18 1.18 0 01-.577-.13c-.17-.096-.257-.232-.257-.354v-.001zm-.928.608c.096 0 .193 0 .292.005l.153.006c.05.002.1.003.152.003h.337c.052 0 .103-.002.152-.003l.154-.006.146-.004h.176v.218l-.12.01c-.318.031-.318.138-.318.353v1.33l1.277-1.333v-.022c0-.153-.03-.231-.083-.271-.053-.041-.136-.048-.234-.056l-.121-.011v-.219h.03c.096 0 .193 0 .291.005h.002c.1.004.203.009.305.009h.336c.052 0 .103-.002.153-.003l.152-.006.147-.004h.175v.218l-.12.01c-.317.031-.317.138-.317.353.005.571 0 1.145 0 1.717 0 .215 0 .322.317.352l.12.011v.218h-.03c-.097 0-.194 0-.292-.004l-.153-.006-.153-.002h-.336a7.69 7.69 0 00-.305.008l-.147.004h-.176v-.218l.12-.01c.318-.031.318-.138.318-.354v-1.324l-1.277 1.329v.038c0 .142.03.216.083.255.053.04.136.047.234.055l.12.011v.218h-.03c-.096 0-.192 0-.29-.004h-.002a7.538 7.538 0 00-.305-.008h-.337c-.052 0-.103.001-.153.003l-.153.005a5.355 5.355 0 01-.146.004h-.176v-.217l.12-.011c.318-.031.318-.138.318-.353-.005-.57 0-1.145 0-1.716 0-.216 0-.322-.317-.353l-.12-.01v-.22h.03zm-4.89 0c.097 0 .194 0 .292.005l.153.006c.05.002.101.003.153.003h.337c.1 0 .205-.005.305-.009h.001l.145-.004h.176v.218l-.12.01c-.317.031-.317.138-.317.353v1.33l1.277-1.333v-.022c0-.153-.03-.231-.084-.271-.053-.041-.135-.048-.233-.056l-.121-.011v-.219h.03c.097 0 .194 0 .292.005l.153.006c.05.002.101.003.152.003h.337c.052 0 .103-.002.153-.003l.152-.006.147-.004h.175v.218l-.12.01c-.317.031-.317.138-.317.353.005.571 0 1.145 0 1.717 0 .215 0 .322.317.352l.12.011v.218h-.03c-.097 0-.194 0-.292-.004l-.153-.006-.153-.002h-.336a7.71 7.71 0 00-.306.008h-.002a3.849 3.849 0 01-.144.004h-.176v-.218l.12-.011c.317-.03.317-.137.317-.353v-1.325l-1.276 1.33v.037c0 .143.03.216.082.255.054.04.136.047.235.056l.12.01v.219h-.03c-.096 0-.192 0-.29-.005h-.002a7.705 7.705 0 00-.305-.008H43.1a7.71 7.71 0 00-.306.008h-.001a4.071 4.071 0 01-.145.004h-.176v-.217l.12-.011c.318-.031.318-.137.318-.353-.005-.57 0-1.145 0-1.716 0-.216 0-.322-.317-.353l-.12-.01v-.22h.03v.001zm-3.155 1.242c.327 0 .417-.23.537-.537l.01-.029c.063-.153.136-.332.255-.473a.66.66 0 01.532-.249.42.42 0 01.284.09.323.323 0 01.108.252.279.279 0 01-.088.212.337.337 0 01-.228.084.366.366 0 01-.159-.04l-.003-.002a.75.75 0 01-.054-.031c-.037-.024-.071-.045-.104-.045-.119 0-.19.177-.246.317l-.02.051c-.08.19-.149.31-.211.388a.52.52 0 01-.125.116.9.9 0 01.387.238c.144.142.29.353.46.663l.003.004c.045.085.139.266.26.266a.11.11 0 00.077-.029.33.33 0 00.062-.082l.014-.024.21.094-.01.027a.62.62 0 01-.613.424c-.553 0-.697-.365-.805-.638l-.166-.416c-.062-.158-.126-.249-.195-.3a.355.355 0 00-.222-.06h-.121v.786c0 .215 0 .322.317.352l.12.011v.218h-.03c-.097 0-.193 0-.29-.004h-.002a7.509 7.509 0 00-.306-.008h-.336c-.102 0-.205.004-.306.008a4.381 4.381 0 01-.146.004h-.176v-.218l.12-.01c.317-.031.317-.138.317-.353-.005-.571 0-1.145 0-1.717 0-.215 0-.322-.317-.352l-.12-.011v-.219h.03c.096 0 .193 0 .29.005h.002c.1.004.204.009.306.009h.336c.102 0 .206-.005.306-.009h.001l.145-.004h.176v.218l-.12.01c-.317.031-.317.138-.317.353v.66h.171zm-2.696 1.082l.009.531h-.238l-.077-.223c-.14.112-.287.185-.433.23a1.535 1.535 0 01-.453.065c-.444 0-.825-.147-1.094-.407-.263-.255-.417-.618-.417-1.059 0-.436.165-.81.438-1.077a1.56 1.56 0 011.103-.43 1.301 1.301 0 01.79.245l.057-.224h.238l.04.957h-.245l-.005-.023a1.082 1.082 0 00-.065-.194.908.908 0 00-.098-.17.755.755 0 00-.291-.254.745.745 0 00-.932.264c-.13.19-.22.475-.22.886 0 .422.096.7.23.879a.805.805 0 00.657.318.681.681 0 00.5-.203c.154-.156.24-.376.269-.574l.004-.026h.242l-.01.489zm-7.557-2.324c.096 0 .193 0 .291.005l.153.006c.05.002.101.003.153.003h.337c.101 0 .205-.005.305-.009h.002l.145-.004h.175v.218l-.12.01c-.317.031-.317.138-.317.353v.698h1.2v-.698c0-.215 0-.321-.317-.352l-.12-.011v-.219h.03c.098 0 .194 0 .293.005l.152.006a4.5 4.5 0 00.153.003h.337a4.5 4.5 0 00.153-.003l.152-.006c.099-.005.195-.005.292-.005h.03v.219l-.12.01c-.317.031-.317.138-.317.354.006.57 0 1.144 0 1.715 0 .216 0 .323.318.353l.12.011v.218h-.03c-.097 0-.194 0-.292-.004l-.153-.006-.153-.002h-.337c-.051 0-.102 0-.152.002l-.154.006a4.981 4.981 0 01-.146.004h-.176v-.218l.12-.01c.318-.031.318-.138.318-.353v-.748h-1.2v.748c0 .215 0 .322.317.352l.12.011v.218h-.03c-.097 0-.193 0-.291-.004h-.002a7.5 7.5 0 00-.305-.008h-.337c-.052 0-.102.001-.152.003l-.154.005a5.366 5.366 0 01-.146.004h-.176v-.217l.12-.011c.318-.031.318-.138.318-.353-.005-.57 0-1.145 0-1.716 0-.216 0-.322-.317-.353l-.12-.01v-.22h.03zm-4.89 0c.097 0 .194 0 .292.005l.153.006c.05.002.102.003.153.003h.336a4.5 4.5 0 00.153-.003l.153-.006.146-.004h.176v.218l-.12.01c-.317.031-.317.138-.317.353v1.33l1.276-1.333v-.022c0-.153-.03-.231-.083-.271-.053-.041-.136-.048-.234-.056l-.12-.011v-.219h.03c.097 0 .193 0 .292.005l.153.006c.05.002.101.003.153.003h.336c.052 0 .103-.002.153-.003l.153-.006.146-.004h.176v.218l-.12.01c-.317.031-.317.138-.317.353.005.572 0 1.146 0 1.717 0 .215 0 .322.317.352l.12.012v.218h-.03c-.097 0-.193 0-.292-.005l-.153-.005a5.42 5.42 0 00-.153-.003h-.336c-.052 0-.103.001-.153.003L26.49 35a5.366 5.366 0 01-.146.004h-.176v-.217l.12-.011c.317-.031.317-.138.317-.353v-1.325l-1.276 1.33v.037c0 .143.03.216.082.255.054.04.136.047.235.056l.12.01v.219h-.03c-.097 0-.193 0-.292-.005l-.153-.005a5.463 5.463 0 00-.153-.003h-.336c-.052 0-.103.001-.153.003l-.153.005a5.355 5.355 0 01-.146.004h-.176v-.217l.12-.011c.317-.031.317-.138.317-.353-.005-.57 0-1.145 0-1.716 0-.216 0-.322-.317-.353l-.12-.01v-.22h.03zm-4.779 0c.097 0 .193 0 .292.005l.153.006a4.5 4.5 0 00.153.003h.336a4.5 4.5 0 00.153-.003l.153-.006.146-.004h.176v.218l-.12.01c-.317.031-.317.138-.317.353v1.818c0 .208.068.206.167.205.276-.002.556-.003.832 0 .099.002.168.003.168-.205v-1.818c0-.215 0-.322-.317-.352l-.12-.011v-.219h.03c.097 0 .193 0 .292.005l.153.006c.05.002.1.003.153.003h.336c.052 0 .103-.002.153-.003l.153-.006.146-.004h.176v.218l-.12.01c-.317.031-.317.138-.317.353v1.88c0 .06.005.098.023.117.017.02.05.026.106.026h.291v1.07h-.233l-.004-.025c-.061-.357-.164-.553-.297-.657-.132-.104-.297-.121-.485-.121h-1.813l-.627.008v-.218l.12-.011c.317-.03.317-.137.317-.352-.005-.571 0-1.145 0-1.717 0-.216 0-.322-.317-.353l-.12-.01v-.219h.03zm-4.889 0c.097 0 .193 0 .292.005l.153.006c.05.002.101.003.153.003h.336a4.5 4.5 0 00.153-.003l.153-.006.146-.004h.176v.218l-.12.01c-.317.031-.317.138-.317.353v1.33l1.276-1.333v-.022c0-.153-.03-.231-.083-.271-.053-.041-.136-.048-.234-.056l-.121-.011v-.219h.03c.097 0 .194 0 .293.005l.152.006c.05.002.102.003.153.003h.337c.052 0 .103-.002.153-.003l.152-.006.147-.004h.175v.218l-.12.01c-.317.031-.317.138-.317.353.005.571 0 1.145 0 1.717 0 .215 0 .322.317.352l.12.011v.218h-.03c-.097 0-.194 0-.292-.004l-.153-.006-.153-.002h-.336c-.052 0-.103 0-.153.002l-.153.006a5.039 5.039 0 01-.147.004H16.5v-.218l.12-.01c.318-.031.318-.138.318-.353v-1.325l-1.276 1.329v.038c0 .142.03.216.082.255.054.04.136.047.234.055l.121.011v.218h-.03c-.097 0-.194 0-.292-.004l-.153-.006a5.88 5.88 0 00-.153-.002h-.337a5.86 5.86 0 00-.153.002l-.153.006a4.988 4.988 0 01-.146.004h-.176v-.218l.12-.01c.318-.031.318-.138.318-.353-.006-.571 0-1.145 0-1.717 0-.215 0-.322-.318-.352l-.12-.011v-.219h.032zm-2.488.355c0-.046-.007-.068-.019-.078-.011-.008-.032-.009-.056-.009h-.416c-.06 0-.09.014-.108.032-.016.018-.02.044-.021.066l-.021.378a4.27 4.27 0 01-.142.934 2.924 2.924 0 01-.219.554c-.086.174-.148.261-.184.313-.02.03-.032.045-.032.052l.004.004c.01.003.026.004.042.004h1.043c.041 0 .075-.003.095-.024.022-.022.035-.068.035-.156v-2.07zm1.108 3.32h-.203l-.004-.025c-.062-.358-.164-.553-.297-.658-.132-.103-.297-.12-.485-.12h-.994c-.326 0-.68 0-.814.778l-.005.025h-.232v-1.07h.177a.33.33 0 00.113-.013c.03-.01.057-.03.093-.067.057-.057.12-.146.18-.246.07-.115.137-.245.184-.355a2.84 2.84 0 00.16-.515c.042-.2.069-.43.069-.688 0-.172-.028-.288-.087-.364-.059-.074-.151-.112-.282-.128l-.098-.011v-.219l.737.014h1.207c.052 0 .103-.001.153-.003l.153-.006.146-.004h.176v.218l-.12.011c-.317.03-.317.137-.317.353v1.88c0 .06.005.097.023.117.017.018.05.025.106.025h.291V35.8h-.03zm-5.72-2.404h.082a.47.47 0 00.312-.111.416.416 0 00.129-.32v-.04h.225l-.013.598.013.599H7.96v-.04a.416.416 0 00-.128-.32.468.468 0 00-.312-.112h-.083v.525c0 .252.036.396.114.475.077.078.2.096.373.096a.894.894 0 00.424-.093c.145-.08.27-.228.294-.502l.002-.027h.227l-.004.034c-.01.08-.019.182-.024.29a3.145 3.145 0 00-.001.264l.01.293-1.942-.013c-.086 0-.106.002-.133.004-.044.002-.109.006-.464.009h-.03v-.218l.12-.011c.317-.03.317-.137.317-.352-.006-.571 0-1.145 0-1.717 0-.216 0-.322-.318-.353l-.12-.01v-.219h.031c.356.003.424.008.47.01.027.002.047.003.127.003l1.763-.013.002.068c.011.353.016.493.032.706l.002.032h-.24l-.004-.027c-.027-.247-.15-.375-.3-.44-.153-.067-.337-.071-.477-.071h-.092c-.16 0-.16.01-.16.175v.828h.001zM1.92 32.96v1.368c0 .173 0 .397.323.443l.115.016v.218h-.032l-.262-.008a6.265 6.265 0 00-.217-.005h-.139c-.062 0-.13.002-.211.005l-.255.007H1.21v-.217l.114-.016c.323-.046.323-.27.323-.443v-1.833a.242.242 0 00-.112-.098.66.66 0 00-.205-.044l-.12-.01v-.22l.262.008c.186.005.31.009.432.006l.391-.014.82 1.934.045-.109a36.888 36.888 0 00.693-1.803l.008-.021.468.013c.082.002.172 0 .288-.004.09-.003.196-.007.33-.009h.03v.219l-.12.01c-.317.031-.317.138-.317.353.005.571 0 1.145 0 1.717 0 .215 0 .322.317.352l.12.011v.218h-.03c-.097 0-.194 0-.292-.004l-.153-.006a5.83 5.83 0 00-.153-.002h-.337c-.051 0-.103 0-.153.002L3.707 35a4.987 4.987 0 01-.146.004h-.176v-.218l.12-.01c.318-.031.318-.138.318-.353v-1.428c-.25.64-.322.805-.386.954-.07.162-.133.306-.413 1.036l-.008.02H2.77l-.85-2.044h.001zM.032 30.928l79.968.07v.11l-79.968-.07v-.11zM0 30.302h80v.222H0v-.222zm.03 6.212L80 36.493v.22l-79.97.021v-.22zM0 35.996l79.933.028v.11L0 36.106v-.11zM68.485 14.16c.09-.12.594-.83.463-1.415a2.08 2.08 0 00-.103-.332c-.126-.31-.305-.496-.486-.597a.71.71 0 00-.492-.087.442.442 0 00-.068.02c-.21.086-.403.29-.503.57a1.329 1.329 0 00-.001.851c.192.612 1.047.94 1.19.99zm-7.779 4.105c.221-.033.957-.154 1.87-.42.57-.167 1.174-.367 1.703-.562.505-.187.943-.371 1.22-.52.359-.192.743-.44 1.107-.709.366-.27.71-.562.986-.837.438-.438.632-.73.686-.819-.183-.075-1.075-.472-1.282-1.13l-.006-.017c-.143-.47-.087-.877.065-1.185.153-.31.404-.521.65-.598l.055-.016c.252-.062.547-.023.81.135s.495.434.62.848c.011.036.022.072.031.109.179.726-.337 1.527-.451 1.693.074.03.28.099.65.116.292.013 1.02-.143 1.772-.36.714-.207 1.449-.467 1.85-.688.928-.506 1.603-.921 2.124-1.37.52-.449.889-.932 1.202-1.577.26-.535.42-.879.516-1.28.097-.403.133-.866.148-1.638.006-.336-.136-.893-.403-1.425-.213-.426-.505-.836-.862-1.104a2.8 2.8 0 00-.994-.473 4.968 4.968 0 00-1.102-.138c-.937-.028-1.877.239-2.745.75-.877.516-1.68 1.28-2.334 2.24a93.87 93.87 0 01-1.413 2.027 67.014 67.014 0 01-2.036 2.691c-.79.99-1.447 1.928-2.117 2.883a89.12 89.12 0 01-1.375 1.922c-.018.073-.27.473-.945 1.453zm-3.327.407c.186-.009.754-.039.993-.072l.782-.103a103.938 103.938 0 013.06-4.338c.96-1.287 1.92-2.5 2.798-3.512a115.022 115.022 0 001.95-2.286c.343-.41.808-.968 1.612-1.923a26.8 26.8 0 01-.696.515c-.937.68-2.355 1.712-3.622 2.99-.992 1-2.098 2.277-3.263 3.758a87.308 87.308 0 00-3.614 4.97v.001zm-5.515-.842c.134.055.612.244 1.112.385.44.124.946.264 1.055.294.381-.6.819-1.377 1.384-2.383.969-1.721 2.313-4.111 4.401-7.433l1.889-3.03c-.827.729-2.132 2.211-3.566 3.965a154.118 154.118 0 00-5.468 7.139c-.2.28-.691.913-.807 1.063zm-1.481 8.645c.211-.076 1.121-.96 2.34-2.351a57.711 57.711 0 003.201-4.015c.078-.107.18-.237.289-.376.17-.218.36-.46.504-.675a20.456 20.456 0 01-.839-.04 6.987 6.987 0 00-.737-.004c-.115.178-.348.586-.648 1.11-.335.586-.752 1.317-1.182 2.035-.392.656-1.117 1.677-1.748 2.568-.605.853-1.124 1.586-1.18 1.748zm-6.162.185c-.984.883-1.975 1.523-2.95 1.95-1.037.454-2.056.665-3.029.665a4.375 4.375 0 01-1.728-.332 4.022 4.022 0 01-1.392-.994c-.406-.44-.78-.921-1.053-1.467a4.095 4.095 0 01-.444-1.86c0-.476.023-.971.096-1.46a5.83 5.83 0 01.386-1.43c.196-.46.457-.944.764-1.412.297-.453.638-.89 1-1.276.427-.448.933-.877 1.474-1.265.569-.407 1.178-.77 1.774-1.06a5.806 5.806 0 011.734-.519 11.085 11.085 0 011.6-.092c.572 0 1.092.075 1.55.226.454.149.848.372 1.175.67.33.3.568.659.725 1.073.155.413.23.882.23 1.406 0 .758-.156 1.53-.469 2.282a7.268 7.268 0 01-1.353 2.094c-.61.67-1.245 1.141-1.898 1.445a4.714 4.714 0 01-2.015.44 2.91 2.91 0 01-.944-.144 2.101 2.101 0 01-.74-.433c-.426-.385-.638-.877-.638-1.474 0-.453.119-.922.346-1.381a4.8 4.8 0 01.987-1.314 5.525 5.525 0 011.14-.868c.36-.197.702-.304 1.004-.304h.005c.034.006.075.013.115.023.041.01.081.021.111.037a.176.176 0 01.077.078c.005.01.008.02.008.029a.043.043 0 01-.014.036.042.042 0 01-.033.01l-.059-.006c-.224-.026-.398-.045-.77.152-1.142.603-1.53 1.177-1.802 1.58a7.883 7.883 0 01-.127.183 3.185 3.185 0 00-.408.79 2.532 2.532 0 00-.164.808c0 .252.024.5.101.73.077.227.206.435.417.607.167.137.385.254.633.334.235.076.497.12.77.12.553 0 1.116-.177 1.675-.498.596-.343 1.188-.85 1.76-1.48.556-.613 1.01-1.234 1.334-1.87.322-.636.517-1.285.555-1.954a3.6 3.6 0 00-.077-1.034 2.487 2.487 0 00-.415-.903 2.226 2.226 0 00-.934-.728c-.38-.164-.846-.264-1.408-.284a4.842 4.842 0 00-1.107.11c-.4.08-.82.205-1.214.363-.385.154-.824.364-1.27.616-.406.229-.818.492-1.203.779a9.813 9.813 0 00-1.54 1.407c-.426.485-.781.991-1.117 1.539a6.483 6.483 0 00-.704 1.692 7.674 7.674 0 00-.268 1.933c0 .5.117 1.005.307 1.471.21.518.513.99.846 1.357.32.352.741.634 1.212.824.471.19.992.29 1.508.274.912-.025 1.896-.295 2.894-.77 1.015-.482 2.044-1.177 3.023-2.044 2.008-1.78 6.652-7.752 6.993-8.19-.297-.19-2.864-1.842-3.598-2.946-.389-.585-.74-1.206-.994-1.872a5.955 5.955 0 01-.412-2.14c0-.99.18-1.909.551-2.76.371-.85.934-1.63 1.698-2.34a7.8 7.8 0 012.644-1.594 9.503 9.503 0 013.252-.562h.363l-.201.06c-.44.13-.844.229-1.224.322-1.515.37-2.669.65-4.493 2.607a5.994 5.994 0 00-1.333 2.227c-.267.802-.375 1.666-.375 2.597 0 .598.1 1.228.281 1.826.18.596.442 1.16.765 1.626.613.884 3.042 2.495 3.308 2.67.322-.435 5.15-6.945 7.308-9.46.984-1.145 1.829-2.006 2.506-2.594.76-.66 1.312-.981 1.617-.981h.005l.052.019a.264.264 0 01.036.02.087.087 0 01.04.076c0 .044-.07.196-.208.455-.136.256-.34.619-.611 1.088a73.372 73.372 0 00-1.51 2.732c-.36.71-.936 1.711-1.607 2.88l-.471.82a312.51 312.51 0 00-2.076 3.675c-.518.934-.902 1.642-1.204 2.204.137.022.563.089.745.092.2.003.706.02.804.024 1.519-2.197 3.005-4.25 4.498-6.08 1.496-1.835 3-3.447 4.551-4.756 1.49-1.255 2.868-2.202 4.106-2.852 1.291-.677 2.431-1.031 3.387-1.075.42-.018.88.035 1.31.148.417.11.805.275 1.098.486.365.262.759.606 1.084 1.067a3.81 3.81 0 01.669 1.77c.05.418.087.861.052 1.335-.034.474-.14.98-.374 1.52-.195.45-.416.842-.73 1.226-.313.384-.718.762-1.278 1.185a7.932 7.932 0 01-1.818 1.028c-.653.266-1.37.467-2.191.639-.383.08-.887.17-1.344.216-.346.035-.666.047-.887.012a2.584 2.584 0 01-.466-.114c-.039.055-.159.22-.294.396-.189.244-.63.71-1.197 1.184a9.138 9.138 0 01-1.354.951c-2.005 1.126-5.102 1.764-5.322 1.808a110.39 110.39 0 00-1.65 2.673 34.475 34.475 0 00-1.22 2.23c-.376.756-.677 1.382-.873 1.91-.196.524-.287.952-.243 1.312.028.23.079.562.155.836.053.188.118.348.196.426.107.107.27.22.467.297.158.061.338.099.524.089.26-.013.688-.124 1.153-.31a5.994 5.994 0 001.18-.623c.399-.277.693-.493.963-.706.27-.215.52-.429.828-.702.406-.36.844-.7 1.128-.92a8.328 8.328 0 00.293-.23c.199-.172.413-.352.646-.53.294-.224.618-.445.981-.647a7.26 7.26 0 011.15-.507c.346-.113.655-.17.926-.17.217 0 .38.05.492.149.111.1.167.248.167.444 0 .335-.275.674-.825 1.015-.54.334-1.349.674-2.424 1.019-.04.137-.07.251-.091.343a1.095 1.095 0 00-.032.216c0 .12.037.21.112.268.076.06.193.09.351.09.219 0 .457-.042.715-.127.26-.085.54-.213.838-.384.207-.12.423-.262.648-.422.225-.161.459-.341.701-.54l.052-.045.005-.01.004-.007c.188-.217.432-.436.733-.657.3-.221.656-.445 1.069-.671.413-.226.79-.396 1.13-.51a2.96 2.96 0 01.915-.17c.302 0 .516.06.643.18.115.107.158.26.132.458 1.647-2.11 2.97-3.697 3.971-4.758 1.016-1.077 1.703-1.615 2.063-1.615.105 0 .186.013.244.04.064.03.1.076.108.137l.002.015-.01.01a55.593 55.593 0 00-3.263 3.567 54.63 54.63 0 00-2.92 3.814c-.285.408-.5.729-.643.962-.14.228-.21.369-.21.42 0 .055.015.096.047.122.033.027.087.041.158.041.109 0 .27-.065.483-.196a7.31 7.31 0 00.807-.6c.372-.312.667-.554.885-.728.22-.175.364-.282.43-.319l.028-.016.042.086-.006.013c-.095.192-.27.406-.525.643a8.68 8.68 0 01-1 .779 7.63 7.63 0 01-1.08.636c-.312.143-.57.215-.774.215-.207 0-.365-.046-.47-.139-.108-.093-.162-.232-.162-.416a1 1 0 01.157-.544 5.64 5.64 0 01-1.121.784c-.413.21-.805.315-1.175.315-.272 0-.478-.063-.616-.187-.139-.126-.209-.313-.209-.56 0-.214.051-.433.153-.658a2.44 2.44 0 01.158-.289 8.126 8.126 0 01-1.446 1.066c-.381.223-.749.39-1.102.502a3.38 3.38 0 01-1.018.168c-.4 0-.701-.068-.903-.204-.206-.138-.31-.345-.31-.62 0-.198.045-.404.132-.62a2.79 2.79 0 01.287-.522 2.55 2.55 0 01-.098.073 1.4 1.4 0 01-.103.093l-.209.174c-.28.232-.699.577-.948.797l-.147.13c-1.101.97-1.36 1.198-2.176 1.72a4.92 4.92 0 01-1.12.54c-.407.134-.78.185-1.105.185a2.21 2.21 0 01-.858-.157 1.722 1.722 0 01-.65-.473 2.078 2.078 0 01-.407-.747 3.274 3.274 0 01-.135-.979c0-.376.068-.817.205-1.324.136-.505.34-1.075.612-1.71.272-.634.623-1.334 1.045-2.109.414-.759.895-1.588 1.437-2.495a5 5 0 01-.478.026 5.4 5.4 0 00-.388.018c-.246.024-.814.07-.91.078a80.012 80.012 0 01-2.39 3.22 40.012 40.012 0 01-2.22 2.61c-.72.768-1.317 1.344-1.79 1.728-.478.389-.834.582-1.068.582h-.007l-.006-.003a.135.135 0 01-.065-.065.174.174 0 01-.02-.081c0-.09.128-.387.383-.892.254-.502.634-1.211 1.14-2.128a254.694 254.694 0 002.766-5.19 281.39 281.39 0 01-1.09-.307c-.338-.098-.995-.371-1.123-.425a256.46 256.46 0 01-3.504 4.58 22.161 22.161 0 01-1.867 2.075c-.656.65-1.341 1.27-2.036 1.893zm27.848-2.745c0-.238-.119-.356-.356-.356-.18 0-.424.101-.73.303-.31.205-.683.513-1.118.924-.435.41-.762.763-.98 1.056-.213.29-.32.521-.32.693 0 .077.02.134.064.17.044.039.113.058.206.058.202 0 .463-.096.782-.286.322-.192.703-.482 1.142-.867.438-.385.767-.72.987-1.005.215-.28.324-.51.324-.69h-.001zm-5.198-.19c0-.055-.018-.097-.053-.123-.037-.029-.095-.043-.175-.043-.277 0-.663.274-1.158.823a7.89 7.89 0 00-.52.628 5.837 5.837 0 00-.376.574c.754-.25 1.322-.528 1.703-.835.386-.312.579-.653.579-1.024zm-35.798 0c0-.11-.076-.166-.227-.166-.278 0-.664.274-1.159.823a7.65 7.65 0 00-.519.628 5.891 5.891 0 00-.377.574c.754-.25 1.322-.528 1.703-.835.386-.312.58-.653.58-1.024zm1.565 1.135c0 .028-.018.066-.054.115a1.66 1.66 0 01-.148.164 8.084 8.084 0 01-1.768 1.38 5.48 5.48 0 01-1.102.502 3.376 3.376 0 01-1.018.168c-.4 0-.701-.068-.903-.204-.206-.138-.31-.346-.31-.621 0-.197.044-.403.132-.618a2.68 2.68 0 01.255-.476l-.077.074c-.244.23-.61.535-1.098.915a5.322 5.322 0 01-1.07.664c-.333.149-.642.223-.925.223-.222 0-.39-.045-.502-.135-.116-.092-.173-.23-.173-.41 0-.227.098-.527.294-.9.162-.311.393-.673.69-1.086-.1.09-.204.18-.315.274l-.127.107a2.29 2.29 0 01-.319.349c-.244.23-.61.534-1.097.914a5.776 5.776 0 01-1.042.665c-.316.148-.598.223-.846.223-.221 0-.388-.043-.501-.13-.116-.088-.174-.22-.174-.395 0-.17.064-.378.192-.626.126-.246.315-.53.567-.854.208-.272.41-.515.608-.727.085-.091.17-.177.252-.257l-.067.051c-.172.13-.372.282-.6.46a27.12 27.12 0 01-.765.659l-.027.026c-.245.229-.611.535-1.098.918a5.26 5.26 0 01-1.048.654c-.326.146-.628.22-.904.22-.229 0-.401-.044-.518-.13-.119-.09-.178-.223-.178-.399 0-.221.1-.523.299-.907.18-.345.44-.758.784-1.239-.206.151-.533.342-.925.57-.317.184-.675.393-1.039.62-.54.34-1.107.667-1.551.9a8.11 8.11 0 01-.492.242 9.889 9.889 0 01-2.273 1.455 10.81 10.81 0 01-2.257.777 10.89 10.89 0 01-2.375.259c-.797 0-1.527-.1-2.189-.297a5.596 5.596 0 01-1.781-.89 4.262 4.262 0 01-1.298-1.575c-.288-.609-.433-1.303-.433-2.08 0-2.185.948-4.218 2.844-6.1a13.343 13.343 0 012.756-2.148 12.822 12.822 0 013.154-1.31 3.697 3.697 0 01-.167-.596 3.38 3.38 0 01-.06-.63 4.808 4.808 0 01.439-2.02 15.307 15.307 0 01-2.499-.942 10.355 10.355 0 01-2.01-1.266c-.74-.597-1.296-1.255-1.667-1.975a5.045 5.045 0 01-.556-2.345c0-.77.146-1.47.438-2.096A4.765 4.765 0 015.309 1.36 5.714 5.714 0 017.128.34 6.704 6.704 0 019.302 0c.69 0 1.354.097 1.99.292a6.929 6.929 0 011.83.873c.668.433 1.17.92 1.506 1.465.336.546.505 1.147.505 1.804 0 .231-.045.357-.133.374l-.008.002-.007-.003a.115.115 0 01-.065-.05.163.163 0 01-.02-.086c0-.56-.153-1.097-.458-1.612-.306-.515-.765-1.008-1.378-1.479a5.664 5.664 0 00-1.74-.913A6.73 6.73 0 009.26.362a6.59 6.59 0 00-1.994.289 5.318 5.318 0 00-1.66.865c-.54.42-.947.908-1.216 1.466-.27.557-.405 1.185-.405 1.882 0 .782.183 1.516.55 2.198.366.683.916 1.318 1.65 1.902.571.45 1.223.853 1.955 1.21a15.73 15.73 0 002.416.926 7.007 7.007 0 011.525-1.808 9.333 9.333 0 012.236-1.385 12 12 0 012.374-.76 12.375 12.375 0 012.514-.252c.703 0 1.36.055 1.97.167a7.816 7.816 0 011.694.501c.7.303 1.224.684 1.575 1.143.352.46.527.998.527 1.613 0 .57-.123 1.08-.369 1.53-.246.447-.614.834-1.105 1.159a4.677 4.677 0 01-1.39.648 6.046 6.046 0 01-1.656.216c-.396 0-.77-.034-1.123-.102a4.658 4.658 0 01-.994-.308 2.956 2.956 0 01-.923-.64 2.201 2.201 0 01-.504-.856 8.78 8.78 0 01-.97.14 12.68 12.68 0 01-1.135.048c-.596 0-1.185-.025-1.766-.075a19.342 19.342 0 01-1.695-.222 5.326 5.326 0 00-.354 2.439c.013.135.033.266.058.392.226-.04.443-.071.65-.092.216-.021.421-.032.615-.032.785 0 1.374.092 1.769.277.402.188.603.47.603.849 0 .312-.121.546-.363.702-.238.154-.592.23-1.063.23-.735 0-1.357-.122-1.866-.368a2.683 2.683 0 01-1.178-1.087 9.177 9.177 0 00-2.706 1.313c-.857.6-1.66 1.362-2.41 2.285-.779.944-1.363 1.897-1.752 2.859a7.7 7.7 0 00-.583 2.909c0 .706.095 1.333.285 1.88.19.546.476 1.013.855 1.4.38.388.839.679 1.377.872.539.195 1.157.292 1.856.292.998 0 1.969-.183 2.91-.547.942-.365 1.855-.912 2.741-1.642.407-.336.782-.696 1.124-1.078a9.86 9.86 0 00.931-1.218 7.006 7.006 0 00.739-1.495c.163-.48.245-.946.245-1.395 0-.419-.076-.795-.228-1.128a2.407 2.407 0 00-.684-.871 2.938 2.938 0 00-.962-.511 3.913 3.913 0 00-1.189-.171c-.662 0-1.287.1-1.875.298a5.636 5.636 0 00-1.65.894c-.555.433-.972.916-1.249 1.451a3.761 3.761 0 00-.415 1.757c0 .476.124.833.372 1.07.248.236.622.354 1.122.354.155 0 .34-.032.555-.095a5.58 5.58 0 00.743-.288l.043-.02c0 .107.004.082-.024.19l-.005.006a1.326 1.326 0 01-.604.396c-.254.087-.562.13-.923.13-.276 0-.528-.046-.756-.14a1.762 1.762 0 01-.609-.418 1.884 1.884 0 01-.4-.622 2.039 2.039 0 01-.134-.747c0-.637.172-1.232.515-1.783.342-.55.855-1.056 1.54-1.518a7.622 7.622 0 011.886-.925 6.346 6.346 0 011.953-.309c1.053 0 1.926.29 2.619.868.375.305.658.664.846 1.077.188.413.282.88.282 1.4 0 .57-.103 1.134-.308 1.69a6.414 6.414 0 01-.922 1.643 9.44 9.44 0 01-.804.939 132.342 132.342 0 002.065-1.248c.477-.294.856-.539 1.154-.74.334-.227.566-.4.717-.53l.47-.6c.187-.238.402-.51.645-.815 2.035-2.521 3.727-4.413 5.078-5.674 1.356-1.265 2.37-1.898 3.044-1.898.23 0 .403.05.52.152.117.103.177.255.177.458 0 .271-.125.591-.373.96-.247.364-.616.779-1.108 1.242-.492.463-1.337 1.2-2.536 2.213a426.63 426.63 0 01-4.651 3.857c-.091.07-.218.218-.379.445-.162.229-.36.536-.592.922-.232.386-.406.7-.522.942-.112.235-.17.4-.171.497l.038.096c.025.024.05.042.073.054a.162.162 0 00.073.018c.237 0 .552-.134.944-.402.357-.245.777-.6 1.26-1.066.08-.103.186-.213.315-.33a7.58 7.58 0 01.944-.699 7.21 7.21 0 011.041-.574c.301-.129.554-.193.759-.193.05 0 .1.003.144.011a.62.62 0 01.125.034l.019.008v.064c0 .021-.094.148-.28.381-.185.23-.46.564-.823 1.002-.364.44-.638.798-.819 1.074-.177.268-.266.457-.269.566a.465.465 0 00.06.117c.011.017.026.03.042.038a.138.138 0 00.063.013c.117 0 .287-.07.511-.213a7.32 7.32 0 00.843-.65c.29-.25.534-.45.734-.6l.064-.064c.133-.13.332-.313.597-.549a149.714 149.714 0 001.04-.914c-.302 0-.605.02-.904-.019l-.006-.005a.148.148 0 01-.041-.05.147.147 0 01-.014-.063c0-.053.057-.09.17-.11.1-.019.246-.028.44-.028.173 0 .31-.002.408-.006a1.4 1.4 0 00.177-.013c.821-1.034 1.512-1.812 2.074-2.33.569-.525 1.007-.787 1.315-.787a.463.463 0 01.344.138l.023.022-.024.022a14.25 14.25 0 00-1.093 1.142 48.383 48.383 0 00-1.478 1.782l.1-.008a2.74 2.74 0 01.174-.006h.88c.111 0 .195.01.252.029.067.022.101.059.101.11 0 .066-.067.114-.201.142-.12.026-.3.038-.538.038h-.995c-.545.71-.955 1.294-1.228 1.752-.273.457-.41.787-.41.99 0 .078.016.136.047.173.03.035.075.053.137.053.13 0 .412-.149.848-.446.326-.223.736-.528 1.23-.916.2-.22.445-.438.736-.654a9.416 9.416 0 011.033-.659 7.253 7.253 0 011.15-.507c.346-.113.655-.17.926-.17.217 0 .381.05.492.15.111.1.167.247.167.443 0 .336-.275.674-.825 1.015-.54.335-1.349.675-2.424 1.02-.04.136-.07.25-.091.343a1.088 1.088 0 00-.032.215c0 .12.037.21.112.268.077.06.194.091.352.091.218 0 .457-.043.715-.127.26-.086.539-.214.838-.384.206-.121.422-.262.647-.423.225-.16.459-.341.701-.54.207-.179.365-.314.473-.404.113-.094.177-.141.191-.141.03 0 .053.008.07.025.017.017.025.04.025.07h-.001zm-6.895-4.188a.552.552 0 01-.11.318 1.335 1.335 0 01-.321.307 1.974 1.974 0 01-.401.23.958.958 0 01-.358.077h-.013l-.009-.01a.31.31 0 01-.073-.153 1.204 1.204 0 01-.022-.254c0-.26.083-.456.248-.587.163-.13.406-.195.728-.195.22 0 .33.09.33.267h.001zm2.088-5.264c0-.128-.028-.223-.084-.285-.055-.061-.139-.092-.251-.092-.257 0-.707.3-1.349.897-.647.603-1.485 1.507-2.516 2.713a88.137 88.137 0 00-2.008 2.404 45.888 45.888 0 00-1.407 1.838 1060.07 1060.07 0 004.274-3.664c1.116-.998 1.953-1.817 2.51-2.455.554-.633.83-1.086.83-1.357zm-3.158-5.058c0-.571-.163-1.068-.488-1.49-.326-.424-.816-.774-1.47-1.05a7.373 7.373 0 00-1.572-.448c-.571-.1-1.189-.15-1.852-.15a9.75 9.75 0 00-2.286.267 9.61 9.61 0 00-2.147.799 8.488 8.488 0 00-1.948 1.348 6.825 6.825 0 00-1.338 1.724c.62.139 1.261.243 1.922.313.672.071 1.365.107 2.08.107.165 0 .358-.011.578-.032.213-.02.454-.052.724-.093v-.08c-.007-.284.04-.55.142-.796.102-.247.258-.476.469-.686.21-.211.44-.369.686-.474a2 2 0 01.796-.159c.293 0 .515.06.664.18.15.12.226.3.226.538 0 .398-.227.743-.68 1.035-.441.285-1.1.52-1.974.706.166.477.511.836 1.036 1.078.54.248 1.27.373 2.189.373.527 0 1.024-.059 1.49-.175a5.07 5.07 0 001.308-.527c.483-.282.844-.616 1.085-1 .24-.385.36-.82.36-1.307v-.001zM14.34 15.667c0-.272-.168-.478-.504-.615-.344-.142-.863-.213-1.556-.213-.185 0-.376.011-.574.032-.188.02-.383.05-.583.09.128.463.375.812.74 1.046.376.24.878.36 1.505.36.327 0 .572-.059.734-.177.159-.115.238-.29.238-.523z" fill="#2E4359"/></svg>