<svg width="150" height="22" fill="none" xmlns="http://www.w3.org/2000/svg"><path d="M99.969 7.288c-.481 0-.88-.16-1.197-.478a1.608 1.608 0 01-.475-1.18c0-.47.158-.863.475-1.181.317-.319.716-.478 1.197-.478.289 0 .556.069.802.206.245.137.436.323.573.557l-.457.265a.94.94 0 00-.372-.377 1.083 1.083 0 00-.546-.14c-.341 0-.617.109-.83.325-.211.216-.317.49-.317.822 0 .332.106.607.318.823.212.216.488.324.829.324.201 0 .384-.046.548-.14a.903.903 0 00.37-.376l.457.26a1.48 1.48 0 01-.569.56 1.61 1.61 0 01-.806.208zm2.334-.562h1.416v.502h-1.941V4.031h1.919v.502h-1.394v.832h1.279v.497h-1.279v.864zm3.975-2.695v.502h-.9v2.695h-.526V4.533h-.904v-.502h2.33zm1.567 1.096c.301 0 .553.101.756.304.202.202.303.451.303.747a1.032 1.032 0 01-1.059 1.05h-1.179V4.032h.525v1.096h.654zm0 1.608a.506.506 0 00.383-.158.553.553 0 00.151-.4.553.553 0 00-.151-.399.506.506 0 00-.383-.158h-.654v1.115h.654zm-6.976 14.416h-.626l-1.26-1.521v1.521h-.526v-3.198h.525v1.435l1.215-1.435h.626l-1.293 1.558 1.339 1.64zm.105 0v-.484c.201.027.351-.021.45-.146.099-.125.148-.364.148-.717v-1.85h2.143v3.197h-.525v-2.695h-1.092v1.338c0 .28-.03.517-.089.709a.923.923 0 01-.254.431.846.846 0 01-.354.192 1.25 1.25 0 01-.427.025zm5.299 0v-2.17l-1.507 2.17h-.412v-3.198h.526v2.17l1.507-2.17h.412v3.198h-.526zm3.061-3.198h.525v3.198h-.525v-1.384h-1.37v1.384h-.526v-3.198h.526v1.312h1.37v-1.312zm3.083 3.198v-2.17l-1.507 2.17h-.411v-3.198h.525v2.17l1.508-2.17h.411v3.198h-.526zm3.577 0h-.625l-1.261-1.521v1.521h-.526v-3.198h.526v1.435l1.215-1.435h.626l-1.293 1.558 1.338 1.64zm-15.914-7.097c-.493 0-.902-.163-1.226-.49a1.647 1.647 0 01-.487-1.209c0-.48.162-.883.487-1.21.324-.325.733-.488 1.226-.488.296 0 .57.07.821.21.251.14.447.331.587.571l-.468.271a.962.962 0 00-.381-.386 1.108 1.108 0 00-.559-.142c-.35 0-.633.11-.85.332a1.155 1.155 0 00-.325.842c0 .34.109.62.326.842.216.222.5.333.849.333.206 0 .393-.048.561-.143a.926.926 0 00.379-.386l.468.267c-.137.24-.331.43-.582.573a1.651 1.651 0 01-.826.213zm3.958-3.336v.514h-.921v2.761h-.538v-2.76h-.927v-.515h2.386zm2.951 2.842a1.64 1.64 0 01-1.205.494 1.64 1.64 0 01-1.205-.494 1.64 1.64 0 01-.494-1.205c0-.474.165-.875.494-1.205a1.64 1.64 0 011.205-.493c.474 0 .876.164 1.205.493.329.33.494.731.494 1.205 0 .475-.165.876-.494 1.205zm-2.031-.365c.223.223.498.335.826.335.327 0 .603-.112.826-.335.223-.223.334-.503.334-.84a1.14 1.14 0 00-.334-.84 1.123 1.123 0 00-.826-.334c-.328 0-.603.112-.826.335a1.14 1.14 0 00-.335.84c0 .336.112.616.335.84zm6.151-2.477v3.275h-.538v-2.335l-.997 1.647h-.065l-.997-1.652v2.34h-.538v-3.275h.58l.987 1.637.992-1.637h.576zm2.789 3.275l-.23-.66h-1.394l-.229.66h-.585l1.188-3.275h.646l1.184 3.275h-.58zm-1.446-1.165h1.038l-.519-1.479-.519 1.479zm4.272-2.11v.514h-.922v2.761h-.538v-2.76h-.927v-.516h2.387zm2.95 2.842a1.64 1.64 0 01-1.205.494 1.64 1.64 0 01-1.205-.494 1.639 1.639 0 01-.493-1.205c0-.474.164-.876.493-1.205a1.64 1.64 0 011.205-.493c.474 0 .876.164 1.205.493.329.33.494.731.494 1.205 0 .474-.165.876-.494 1.205zm-2.031-.365c.223.223.499.335.826.335.328 0 .603-.112.826-.335a1.14 1.14 0 00.335-.84 1.14 1.14 0 00-.335-.84 1.121 1.121 0 00-.826-.334 1.12 1.12 0 00-.826.335 1.139 1.139 0 00-.334.84c0 .336.111.616.334.84zm2.562.798v-.496c.206.028.36-.022.461-.15.101-.128.152-.372.152-.734v-1.895h2.195v3.275h-.538v-2.76h-1.119v1.37c0 .287-.03.53-.091.726-.061.196-.147.344-.26.442a.873.873 0 01-.362.196 1.27 1.27 0 01-.438.026zm6.202-.433c-.329.33-.73.494-1.204.494-.475 0-.876-.165-1.205-.494a1.64 1.64 0 01-.494-1.205c0-.474.164-.875.494-1.205.329-.329.73-.493 1.205-.493.474 0 .875.164 1.204.493.329.33.494.731.494 1.205 0 .475-.164.876-.494 1.205zm-2.03-.365c.223.223.498.335.825.335.328 0 .603-.112.826-.335a1.14 1.14 0 00.335-.84 1.14 1.14 0 00-.335-.84 1.121 1.121 0 00-.826-.334 1.12 1.12 0 00-.825.335 1.14 1.14 0 00-.335.84c0 .336.112.616.335.84zm4.864-2.477v.514h-1.31v2.761h-.539v-3.275h1.849zm2.363 3.275V11.77l-1.544 2.223h-.422v-3.275h.538v2.222l1.545-2.222h.421v3.275h-.538zm2.948-3.275h.538v3.275h-.538v-1.259a1.73 1.73 0 01-.721.155c-.328 0-.594-.092-.798-.274-.204-.183-.306-.425-.306-.728v-1.17h.538v1.114c0 .169.051.301.154.398a.591.591 0 00.421.145c.259 0 .496-.053.712-.16v-1.497zm1.731 2.76h1.45v.515h-1.988v-3.275h1.965v.514h-1.427v.852h1.31v.51h-1.31v.884zm3.462.576c-.492 0-.901-.163-1.226-.49a1.648 1.648 0 01-.486-1.209c0-.48.162-.883.486-1.21.325-.325.734-.488 1.226-.488.297 0 .571.07.822.21.251.14.446.331.587.571l-.468.271a.962.962 0 00-.381-.386 1.111 1.111 0 00-.56-.142c-.349 0-.632.11-.849.332-.217.221-.325.502-.325.842 0 .34.108.62.325.842.217.222.5.333.849.333.206 0 .394-.048.562-.143a.932.932 0 00.379-.386l.468.267c-.137.24-.332.43-.583.573a1.649 1.649 0 01-.826.213zm4.324-.06h-.641l-1.291-1.559v1.558h-.539v-3.275h.539v1.47l1.244-1.47h.641l-1.324 1.595 1.371 1.68zm2.316 0V11.77l-1.544 2.222h-.421v-3.275h.538v2.222l1.544-2.222h.421v3.275h-.538zm3.603 0h-.613l-.72-1.185-.721 1.184h-.613l1.03-1.684-.969-1.591h.608l.665 1.09.664-1.09h.613l-.969 1.59 1.025 1.685zm-61.043 2.188a.618.618 0 01-.44-.182l-3.503-3.503a.62.62 0 010-.877l3.504-3.504a.621.621 0 01.878.878l-3.065 3.064 3.065 3.064a.621.621 0 01-.44 1.06z" fill="#F04B6F"/><path d="M84.269 20.863a.618.618 0 01-.44-.182l-3.064-3.065-3.065 3.065a.62.62 0 11-.878-.878l3.504-3.503a.62.62 0 01.878 0l3.504 3.503a.62.62 0 01-.44 1.06zM80.788 8.026a.618.618 0 01-.44-.182L76.847 4.34a.62.62 0 11.878-.878l3.064 3.064 3.065-3.064a.62.62 0 11.877.878l-3.503 3.503a.618.618 0 01-.44.182zm-8.168 8.185a.62.62 0 01-.439-1.06l3.066-3.064-3.065-3.065a.62.62 0 11.877-.877l3.504 3.503a.62.62 0 010 .878l-3.504 3.503a.618.618 0 01-.439.182zm.016 4.653a.62.62 0 01-.439-1.06L88.515 3.489a.62.62 0 11.878.878L73.075 20.682a.618.618 0 01-.439.182z" fill="#06BA98"/><path d="M88.922 20.817a.618.618 0 01-.439-.182L72.205 4.357a.62.62 0 11.878-.878l16.278 16.279a.62.62 0 01-.439 1.06zm-78.965.09L2.045 12.43v8.476H0V3.328h2.045v7.986l7.66-7.986h2.586L4.19 11.866l8.352 9.04H9.957zm15.347-4.134H17.18l-1.532 4.132h-2.17l6.655-17.578h2.22l6.655 17.578h-2.17l-1.533-4.132zm-.714-1.92l-3.355-9.042-3.34 9.042h6.695zM43.463 3.327v17.578h-1.694l-9.42-13.727v13.727h-2.044V3.327h1.694l9.419 13.714V3.327h2.045zm1.584 8.789c0-5.048 3.98-9.103 9.09-9.103 5.11 0 9.103 4.055 9.103 9.103 0 5.035-3.992 9.103-9.103 9.103-5.11 0-9.09-4.068-9.09-9.103zm16.149 0c0-3.98-3.052-7.121-7.059-7.121-4.006 0-7.058 3.14-7.058 7.121 0 3.969 3.052 7.109 7.058 7.109 4.007 0 7.059-3.14 7.059-7.109zM24.155 1.06a.62.62 0 01-.44.181h-4.954a.62.62 0 110-1.241h4.955a.62.62 0 01.439 1.06z" fill="#06BA98"/></svg>