<svg width="130" height="21" fill="none" xmlns="http://www.w3.org/2000/svg"><g clip-path="url(#clip0_2806_1572)"><path d="M90.493 15.809a.631.631 0 01-.446-.184l-3.565-3.536a.623.623 0 010-.886l3.565-3.537a.636.636 0 01.893 0 .624.624 0 010 .886l-3.119 3.094 3.119 3.093a.623.623 0 010 .886.632.632 0 01-.447.184z" fill="#F39657"/><path d="M85.73 20.535a.63.63 0 01-.447-.183l-3.118-3.094-3.118 3.094a.635.635 0 01-.893 0 .623.623 0 010-.886l3.565-3.537a.634.634 0 01.892 0l3.566 3.537a.623.623 0 010 .886.632.632 0 01-.447.183zm-3.534-12.96a.63.63 0 01-.447-.184l-3.564-3.536a.622.622 0 010-.886.634.634 0 01.893 0l3.118 3.093 3.118-3.093a.634.634 0 01.893 0 .622.622 0 010 .886L82.642 7.39a.631.631 0 01-.446.184zm-8.33 8.263a.63.63 0 01-.447-.184.623.623 0 010-.886l3.119-3.094-3.119-3.094a.623.623 0 010-.886.634.634 0 01.893 0l3.565 3.537a.623.623 0 010 .886l-3.565 3.537a.63.63 0 01-.446.184zm.031 4.698a.631.631 0 01-.446-.183.623.623 0 010-.886L90.053 2.994a.635.635 0 01.893 0 .623.623 0 010 .886L74.344 20.353a.632.632 0 01-.447.183z" fill="#16B3DC"/><path d="M90.475 20.489a.631.631 0 01-.447-.184L73.466 3.872a.623.623 0 010-.886.635.635 0 01.893 0l16.562 16.433a.623.623 0 010 .886.63.63 0 01-.447.184zm-80.345.089l-8.05-8.556v8.556H0V2.832h2.08v8.062l7.795-8.062h2.63l-8.242 8.62 8.498 9.126h-2.63zm15.623-4.172h-8.267l-1.559 4.172H13.72l6.77-17.746h2.259l6.771 17.746h-2.208l-1.56-4.172zm-.728-1.938L21.613 5.34l-3.4 9.13h6.812zM44.223 2.832v17.746H42.5L32.917 6.719v13.859h-2.081V2.832h1.723l9.584 13.845V2.832h2.08zm1.621 8.872c0-5.095 4.05-9.19 9.249-9.19 5.2 0 9.261 4.095 9.261 9.19 0 5.083-4.062 9.19-9.261 9.19-5.2 0-9.25-4.107-9.25-9.19zm16.43 0c0-4.018-3.105-7.189-7.181-7.189-4.076 0-7.181 3.17-7.181 7.19 0 4.006 3.105 7.176 7.18 7.176 4.077 0 7.182-3.17 7.182-7.177z" fill="#16B3DC"/><path d="M102.229 6.857h-.639l-1.289-1.542v1.542h-.537V3.615h.537v1.454l1.242-1.454h.64l-1.322 1.58 1.368 1.662zm.108 0v-.49c.205.027.358-.022.459-.149.101-.127.152-.37.152-.727V3.615h2.189v3.242h-.536V4.124h-1.116v1.358c0 .284-.03.523-.091.718a.934.934 0 01-.259.437.876.876 0 01-.362.195c-.129.032-.274.04-.436.025zm5.415 0v-2.2l-1.541 2.2h-.42V3.615h.537v2.2l1.54-2.2h.421v3.242h-.537zm3.128-3.242h.536v3.242h-.536V5.454h-1.401v1.403h-.537V3.615h.537v1.33h1.401v-1.33zm3.151 3.242v-2.2l-1.541 2.2h-.42V3.615h.537v2.2l1.54-2.2h.42v3.242h-.536zm3.655 0h-.64l-1.288-1.542v1.542h-.537V3.615h.537v1.454L117 3.615h.639l-1.321 1.58 1.368 1.662zm2.549 0l-.229-.653h-1.391l-.229.653h-.584l1.186-3.242h.645l1.181 3.242h-.579zm-1.443-1.153h1.037l-.518-1.464-.519 1.464zm-16.084 5.449c.275.227.413.527.413.9 0 .374-.138.675-.413.902-.276.227-.644.359-1.104.396v.37h-.528v-.37c-.464-.037-.833-.17-1.109-.396a1.11 1.11 0 01-.413-.901c0-.374.138-.674.413-.901.276-.227.645-.36 1.109-.396v-.37h.528v.37c.46.037.828.169 1.104.396zm-2.617.9c0 .242.085.43.255.566.169.136.413.217.73.245v-1.62c-.656.058-.985.328-.985.81zm1.513.811c.653-.065.98-.335.98-.81 0-.482-.327-.752-.98-.81v1.62zm3.921.81v-2.2l-1.54 2.2h-.42v-3.242h.536v2.2l1.541-2.2h.42v3.243h-.537zm2.829-1.68c.333.157.5.418.5.782a.853.853 0 01-.325.693c-.216.177-.498.266-.847.266-.598 0-.993-.25-1.186-.75l.462-.264c.097.343.338.514.724.514.205 0 .362-.044.471-.132a.432.432 0 00.164-.354.433.433 0 00-.157-.35c-.104-.088-.251-.132-.441-.132h-.397v-.482h.29c.183 0 .327-.041.429-.125a.407.407 0 00.154-.333.416.416 0 00-.14-.332c-.093-.081-.227-.122-.401-.122-.324 0-.542.147-.654.44l-.457-.264c.211-.451.582-.676 1.111-.676.321 0 .58.085.779.257.2.171.299.394.299.67a.768.768 0 01-.378.694zm2.927 1.68v-2.2l-1.54 2.2h-.421v-3.242h.537v2.2l1.541-2.2h.42v3.243h-.537zm2.941-3.242h.537v3.243h-.537v-1.246a1.737 1.737 0 01-.719.153c-.327 0-.592-.09-.796-.271-.204-.18-.306-.421-.306-.72v-1.159h.537v1.103c0 .166.052.298.154.394a.593.593 0 00.42.143c.259 0 .495-.052.71-.157v-1.483zm1.727 2.733h1.448v.51h-1.985v-3.243h1.961v.51h-1.424v.843h1.307v.505h-1.307v.875zm3.455.57c-.492 0-.9-.161-1.223-.484a1.623 1.623 0 01-.486-1.197c0-.476.162-.875.486-1.198.323-.322.731-.484 1.223-.484.296 0 .569.07.819.209.251.138.446.327.586.565l-.467.268a.961.961 0 00-.38-.382 1.117 1.117 0 00-.558-.141c-.349 0-.631.11-.847.329a1.134 1.134 0 00-.325.833c0 .337.108.615.325.834.216.22.498.33.847.33.205 0 .392-.048.56-.142a.926.926 0 00.378-.382l.467.264a1.509 1.509 0 01-.581.567c-.251.14-.525.211-.824.211zm4.313-.06h-.639l-1.289-1.543v1.543h-.536v-3.243h.536v1.455l1.242-1.455h.64l-1.321 1.58 1.368 1.663h-.001zm2.804-.429a1.643 1.643 0 01-1.202.489 1.64 1.64 0 01-1.202-.489 1.614 1.614 0 01-.493-1.193c0-.469.164-.866.493-1.192a1.641 1.641 0 011.202-.489c.473 0 .873.163 1.202.489.328.326.492.723.492 1.192 0 .47-.164.867-.492 1.193zm-2.026-.36c.222.22.497.33.824.33.326 0 .601-.11.824-.33.222-.222.333-.499.333-.832 0-.334-.111-.611-.333-.832a1.126 1.126 0 00-.824-.331c-.327 0-.602.11-.824.331a1.12 1.12 0 00-.334.832c0 .333.111.61.334.831zm3.606-2.778v-.435h1.307v.435h-1.307zm1.363 3.567v-2.2l-1.54 2.2h-.42v-3.243h.536v2.2l1.541-2.2h.42v3.243h-.537zm-27.575 3.575v.51h-.92v2.732h-.537V17.76h-.924v-.509h2.381zm.933 2.733h1.448v.51h-1.984V17.25h1.96v.51h-1.424v.842h1.308v.505h-1.308v.876zm3.142-2.733c.308 0 .566.102.773.306.207.204.31.457.31.76 0 .299-.103.551-.31.757a1.054 1.054 0 01-.773.308h-.667v1.111h-.537V17.25h1.204zm0 1.63a.52.52 0 00.392-.16.559.559 0 00.154-.405.559.559 0 00-.154-.405.52.52 0 00-.392-.16h-.667v1.13h.667zm3.352 1.612l-.229-.653h-1.391l-.229.653h-.583l1.186-3.242h.644l1.181 3.242h-.579zm-1.442-1.153h1.036l-.518-1.464-.519 1.464h.001zm4.775-2.089v3.242h-.537V17.76h-1.33v2.733h-.537V17.25h2.404zm2.615 3.242v-2.2l-1.541 2.2h-.42V17.25h.537v2.2l1.54-2.2h.42v3.242h-.536zm3.151 0v-2.2l-1.541 2.2h-.42V17.25h.537v2.2l1.54-2.2h.42v3.242h-.536z" fill="#F39657"/><path d="M24.713 1.07a.632.632 0 01-.447.183h-5.04a.629.629 0 01-.632-.627c0-.346.282-.626.631-.626h5.041a.628.628 0 01.447 1.07z" fill="#16B3DC"/></g><defs><clipPath id="clip0_2806_1572"><path fill="#fff" d="M0 0h130v20.894H0z"/></clipPath></defs></svg>