<svg width="116" height="45" fill="none" xmlns="http://www.w3.org/2000/svg"><path d="M5.003 31.284h-.058l-3.16-4.733v7.215H.04V23.665h1.89l3.074 4.776 3.074-4.776h1.89v10.101H8.192v-7.243l-3.189 4.761zm11.867-1.862c-.117-1.126-.78-2.006-1.935-2.006-1.067 0-1.818.823-1.977 2.006h3.911zm-1.704 3.09c.852 0 1.458-.32 2.064-.91l1.025.91c-.722.864-1.718 1.427-3.117 1.427-2.208 0-3.911-1.602-3.911-3.968 0-2.194 1.544-3.983 3.723-3.983 2.424 0 3.65 1.905 3.65 4.113 0 .158-.014.302-.028.476h-5.6c.203 1.241 1.07 1.934 2.194 1.934zm8.038-5.009c-1.197 0-2.194.925-2.194 2.454 0 1.5 1.011 2.453 2.194 2.453 1.169 0 2.208-.967 2.208-2.453 0-1.487-1.039-2.454-2.208-2.454zm2.179 6.263v-1.27c-.563.794-1.357 1.43-2.598 1.43-1.79 0-3.535-1.43-3.535-3.969 0-2.54 1.717-3.969 3.535-3.969 1.256 0 2.05.635 2.598 1.342v-3.665h1.746v10.101h-1.746z" fill="#7A7A7A"/><path d="M33.055 33.766h-1.789v-8.457h-3.203v-1.644h8.196v1.644h-3.204v8.457zm4.871 0H36.18v-7.62h1.746v1.717c.476-1.139 1.357-1.918 2.698-1.86v1.846h-.1c-1.53 0-2.598.996-2.598 3.016v2.9zm7.837-3.232a4.987 4.987 0 00-1.747-.304c-1.096 0-1.745.447-1.745 1.227v.029c0 .721.648 1.125 1.471 1.125 1.155 0 2.02-.65 2.02-1.601v-.476zm-.044 3.232v-.938c-.519.62-1.313 1.096-2.467 1.096-1.443 0-2.713-.822-2.713-2.351v-.03c0-1.645 1.313-2.453 3.089-2.453.923 0 1.514.13 2.106.318v-.188c0-1.053-.664-1.63-1.876-1.63-.851 0-1.486.187-2.179.476l-.476-1.4c.837-.375 1.66-.635 2.9-.635 2.252 0 3.348 1.183 3.348 3.217v4.517H45.72zm8.066-7.62h1.833l-3.117 7.677h-1.573l-3.131-7.677h1.876l2.048 5.6 2.064-5.6zm7.389 3.276c-.116-1.126-.78-2.006-1.934-2.006-1.068 0-1.818.823-1.977 2.006h3.91zm-1.703 3.09c.851 0 1.457-.32 2.063-.91l1.025.91c-.722.864-1.718 1.427-3.117 1.427-2.208 0-3.91-1.602-3.91-3.968 0-2.194 1.544-3.983 3.723-3.983 2.424 0 3.65 1.905 3.65 4.113 0 .158-.015.302-.029.476h-5.599c.202 1.241 1.069 1.934 2.194 1.934zm4.576-8.847h1.745v10.1h-1.745v-10.1z" fill="#1699FF"/><path d="M74.192 30.793c0-.866-.678-1.37-2.077-1.37H69.3v2.77h2.943c1.213 0 1.948-.476 1.948-1.4zm-.562-4.257c0-.822-.635-1.298-1.775-1.298H69.3v2.684h2.424c1.14 0 1.905-.448 1.905-1.386zm1.775-.288c0 1.24-.692 1.876-1.444 2.265 1.184.404 2.006 1.082 2.006 2.468 0 1.818-1.486 2.784-3.738 2.784h-4.674v-10.1h4.53c2.035 0 3.32.995 3.32 2.582zm6.871 3.174c-.116-1.126-.78-2.006-1.934-2.006-1.068 0-1.818.823-1.977 2.006h3.91zm-1.703 3.09c.852 0 1.457-.32 2.063-.91l1.025.91c-.721.864-1.717 1.427-3.117 1.427-2.208 0-3.911-1.602-3.911-3.968 0-2.194 1.544-3.983 3.724-3.983 2.424 0 3.65 1.905 3.65 4.113 0 .158-.015.302-.03.476H78.38c.202 1.241 1.068 1.934 2.193 1.934zm4.575-8.847h1.746v10.1h-1.746v-10.1zm8.005 6.869a4.982 4.982 0 00-1.746-.304c-1.097 0-1.745.447-1.745 1.227v.029c0 .721.648 1.125 1.471 1.125 1.155 0 2.02-.65 2.02-1.601v-.476zm-.043 3.232v-.938c-.52.62-1.313 1.096-2.467 1.096-1.444 0-2.713-.822-2.713-2.351v-.03c0-1.645 1.313-2.453 3.088-2.453.923 0 1.515.13 2.107.318v-.188c0-1.053-.664-1.63-1.876-1.63-.85 0-1.487.187-2.18.476l-.475-1.4c.837-.375 1.659-.635 2.9-.635 2.25 0 3.348 1.183 3.348 3.217v4.517H93.11zm4.839 0h-1.746v-7.62h1.746v1.717c.476-1.139 1.356-1.918 2.698-1.86v1.846h-.1c-1.53 0-2.598.996-2.598 3.016v2.9zm8.497-7.619h1.746v7.62h-1.746v-1.184c-.491.722-1.198 1.342-2.381 1.342-1.718 0-2.713-1.154-2.713-2.93v-4.848h1.746v4.33c0 1.182.591 1.86 1.631 1.86 1.009 0 1.716-.707 1.716-1.89v-4.3h.001zm5.834 7.763c-1.083 0-2.28-.389-3.233-1.14l.779-1.182c.822.62 1.717.937 2.497.937.751 0 1.183-.317 1.183-.822v-.029c0-.592-.808-.794-1.703-1.068-1.125-.317-2.381-.78-2.381-2.236v-.03c0-1.443 1.198-2.323 2.714-2.323.952 0 1.991.332 2.799.865l-.693 1.242c-.736-.448-1.515-.722-2.15-.722-.678 0-1.068.318-1.068.765v.03c0 .547.822.778 1.717 1.067 1.111.346 2.367.85 2.367 2.222v.03c0 1.6-1.242 2.395-2.828 2.395z" fill="#7A7A7A"/><path d="M7.847 7.959L0 .058v15.918h20.97v-4.994h-5.492v-5.99h5.491V0h-5.275L7.847 7.959zm35.243-.333c1.698-.59 2.842-1.746 2.842-3.625v-.045c0-1.089-.43-1.933-.996-2.5C44.008.526 42.604 0 40.406 0H26.462v4.991h5.478v5.991h-5.478v4.994h13.853c4.011 0 6.118-1.916 6.118-4.454v-.045c0-2.175-1.303-3.263-3.343-3.851z" fill="#2B9DE0"/><path d="M7.847 7.959L0 .058v15.918h20.97v-4.994h-5.492v-5.99h5.491V0h-5.275L7.847 7.959zm35.243-.333c1.698-.59 2.842-1.746 2.842-3.625v-.045c0-1.089-.43-1.933-.996-2.5C44.008.526 42.604 0 40.406 0H26.462v4.991h5.478v5.991h-5.478v4.994h13.853c4.011 0 6.118-1.916 6.118-4.454v-.045c0-2.175-1.303-3.263-3.343-3.851z" fill="#2B9DE1"/><path fill-rule="evenodd" clip-rule="evenodd" d="M0 15.976h20.97v-4.994h-5.493v-5.99h5.492V0h-5.275L7.847 7.96 0 .057v15.918zm26.46 0h13.854c4.011 0 6.117-1.916 6.117-4.454v-.045c0-2.175-1.302-3.263-3.342-3.851 1.7-.59 2.842-1.746 2.842-3.625v-.045c0-1.089-.429-1.932-.996-2.5C44.007.527 42.605 0 40.406 0H26.461v4.991h5.478v5.991h-5.478v4.994z" fill="#1699FF"/><path d="M1.601 43.178h-.018l-.994-1.49v2.271h-.55V40.78h.595l.967 1.503.968-1.503h.595v3.179h-.56v-2.28l-1.003 1.499zm3.956-.586c-.037-.355-.246-.632-.609-.632-.336 0-.572.26-.622.632h1.23zm-.536.971c.268 0 .459-.1.65-.286l.322.286c-.227.273-.54.45-.981.45-.695 0-1.23-.504-1.23-1.25 0-.69.485-1.252 1.17-1.252.763 0 1.15.6 1.15 1.294 0 .05-.005.095-.01.15h-1.76c.063.39.336.608.69.608zm2.762-1.575c-.377 0-.69.29-.69.772 0 .472.318.772.69.772.368 0 .695-.304.695-.772s-.327-.772-.695-.772zm.686 1.97v-.4c-.177.25-.426.45-.817.45-.563 0-1.113-.45-1.113-1.248 0-.8.54-1.249 1.113-1.249.395 0 .644.2.817.422v-1.29h.55v3.316h-.55zm1.264-2.397h.55v2.398h-.55V41.56zm-.022-.89h.59v.522h-.59v-.522zm2.396 3.342c-.713 0-1.24-.559-1.24-1.244 0-.686.527-1.258 1.244-1.258.454 0 .736.168.958.413l-.34.368c-.168-.177-.345-.3-.622-.3-.4 0-.69.345-.69.768 0 .43.295.776.717.776.259 0 .45-.123.622-.3l.332.327c-.236.263-.513.45-.981.45zm2.966-1.072a1.574 1.574 0 00-.55-.095c-.344 0-.549.14-.549.386v.01c0 .227.205.354.463.354.364 0 .636-.205.636-.505v-.15zm-.014 1.018v-.296a.968.968 0 01-.776.346c-.454 0-.853-.26-.853-.74v-.01c0-.517.412-.772.971-.772.29 0 .477.041.664.1v-.059c0-.332-.21-.513-.591-.513-.268 0-.468.059-.686.15l-.15-.441c.263-.118.523-.2.913-.2.708 0 1.053.373 1.053 1.013v1.421h-.545zm1.231-3.315h.549v3.315h-.55v-3.315zm4.07.781l-.546 1.272h1.095l-.55-1.272zm1.666 2.534h-.59l-.323-.768H19.61l-.327.768h-.572l1.399-3.202h.518l1.398 3.202zm1.304.045c-.34 0-.718-.123-1.017-.359l.244-.372c.26.195.54.295.786.295.236 0 .372-.1.372-.259V43.3c0-.186-.254-.25-.535-.336-.354-.1-.75-.246-.75-.704v-.01c0-.453.377-.73.854-.73.3 0 .627.104.88.272l-.217.391c-.232-.141-.477-.227-.677-.227-.213 0-.336.1-.336.24v.009c0 .173.259.246.54.336.35.11.745.268.745.7v.008c0 .505-.39.755-.89.755zm2.226 0c-.34 0-.717-.123-1.017-.359l.245-.372c.259.195.54.295.786.295.236 0 .372-.1.372-.259V43.3c0-.186-.254-.25-.536-.336-.354-.1-.749-.246-.749-.704v-.01c0-.453.377-.73.854-.73.299 0 .626.104.88.272l-.217.391c-.232-.141-.477-.227-.677-.227-.213 0-.336.1-.336.24v.009c0 .173.259.246.54.336.35.11.744.268.744.7v.008c0 .505-.39.755-.89.755h.001zm1.474-2.443h.55v2.398h-.55V41.56zm-.022-.89h.59v.522h-.59v-.522zm2.11 3.333c-.34 0-.717-.123-1.016-.359l.244-.372c.26.195.54.295.786.295.236 0 .372-.1.372-.259V43.3c0-.186-.254-.25-.535-.336-.355-.1-.75-.246-.75-.704v-.01c0-.453.377-.73.854-.73.3 0 .627.104.88.272l-.217.391c-.232-.141-.477-.227-.677-.227-.213 0-.336.1-.336.24v.009c0 .173.259.246.54.336.35.11.745.268.745.7v.008c0 .505-.39.755-.89.755zm2.072-.794c0 .213.109.3.295.3a.73.73 0 00.34-.083v.45a.96.96 0 01-.495.123c-.404 0-.69-.177-.69-.704v-1.262h-.304v-.472h.304v-.66h.55v.66h.645v.472h-.645v1.176zm2.68-.269a1.574 1.574 0 00-.549-.095c-.345 0-.55.14-.55.386v.01c0 .227.205.354.464.354.363 0 .635-.205.635-.505v-.15zm-.013 1.018v-.296a.97.97 0 01-.777.346c-.454 0-.853-.26-.853-.74v-.01c0-.517.413-.772.971-.772.291 0 .477.041.663.1v-.059c0-.332-.208-.513-.59-.513a1.66 1.66 0 00-.685.15l-.15-.441c.263-.118.522-.2.912-.2.709 0 1.054.373 1.054 1.013v1.421h-.545zm1.747 0h-.55V41.56h.55v.373c.154-.228.377-.423.75-.423.54 0 .853.363.853.922v1.526h-.55v-1.363c0-.372-.186-.586-.513-.586-.317 0-.54.223-.54.595v1.353zm3.37.054c-.713 0-1.24-.559-1.24-1.244 0-.686.527-1.258 1.244-1.258.455 0 .736.168.959.413l-.34.368c-.169-.177-.346-.3-.623-.3-.4 0-.69.345-.69.768 0 .43.295.776.718.776.258 0 .45-.123.622-.3l.331.327c-.236.263-.513.45-.98.45h-.001zm3.059-1.421c-.036-.355-.245-.632-.608-.632-.336 0-.572.26-.622.632h1.23zm-.535.971c.268 0 .458-.1.649-.286l.322.286a1.21 1.21 0 01-.98.45c-.695 0-1.231-.504-1.231-1.25 0-.69.486-1.252 1.171-1.252.763 0 1.15.6 1.15 1.294 0 .05-.005.095-.01.15h-1.761c.063.39.336.608.69.608zm4.54.45c-.926 0-1.616-.722-1.616-1.64 0-.907.677-1.647 1.639-1.647.585 0 .94.203 1.244.495l-.359.413c-.254-.237-.527-.396-.89-.396-.609 0-1.049.5-1.049 1.126 0 .627.44 1.136 1.049 1.136.39 0 .64-.159.913-.413l.359.363c-.332.345-.695.563-1.29.563zm2.905-2.021c-.44 0-.722.345-.722.768 0 .426.305.776.73.776.446 0 .727-.345.727-.767 0-.427-.304-.777-.736-.777zm0 2.02c-.731 0-1.271-.558-1.271-1.243 0-.69.545-1.258 1.28-1.258.736 0 1.276.558 1.276 1.249 0 .685-.545 1.253-1.285 1.253zm4.645-2.502c.522 0 .84.332.84.918v1.53h-.55v-1.362c0-.381-.177-.586-.485-.586-.3 0-.513.21-.513.595v1.353h-.55v-1.366c0-.372-.182-.582-.486-.582s-.513.227-.513.6v1.348h-.55v-2.397h.55v.363c.154-.213.363-.413.731-.413.345 0 .585.168.713.422.196-.254.45-.422.813-.422zm2.748.478c-.372 0-.698.304-.698.772s.326.772.698.772c.378 0 .687-.295.687-.772 0-.472-.313-.772-.687-.772zm.128 2.02c-.395 0-.645-.2-.813-.422v1.1h-.55V41.56h.55v.4c.178-.25.427-.45.813-.45.568 0 1.117.45 1.117 1.25 0 .798-.545 1.248-1.117 1.248zm3.156-1.067a1.57 1.57 0 00-.548-.095c-.346 0-.55.14-.55.386v.01c0 .227.205.354.464.354.362 0 .635-.205.635-.505v-.15zm-.013 1.018v-.296a.969.969 0 01-.776.346c-.455 0-.854-.26-.854-.74v-.01c0-.517.413-.772.971-.772.291 0 .477.041.664.1v-.059c0-.332-.209-.513-.59-.513a1.66 1.66 0 00-.686.15l-.15-.441c.263-.118.521-.2.912-.2.709 0 1.053.373 1.053 1.013v1.421h-.544zm1.747 0h-.55V41.56h.55v.373c.154-.228.377-.423.75-.423.54 0 .853.363.853.922v1.526h-.55v-1.363c0-.372-.186-.586-.513-.586-.318 0-.54.223-.54.595v1.353zm3.482.068c-.191.49-.404.672-.79.672-.232 0-.4-.054-.569-.146l.187-.409a.68.68 0 00.322.091c.155 0 .25-.067.34-.276l-.998-2.398h.586l.68 1.78.623-1.78h.572l-.953 2.466z" fill="#1699FF"/></svg>