<svg width="44" height="44" viewBox="0 0 44 44" fill="none" xmlns="http://www.w3.org/2000/svg">
<path d="M0 0V-0.5H-0.5V0H0ZM44 0H44.5V-0.5H44V0ZM44 44V44.5H44.5V44H44ZM0 44H-0.5V44.5H0V44ZM0 0.5H44V-0.5H0V0.5ZM43.5 0V44H44.5V0H43.5ZM44 43.5H0V44.5H44V43.5ZM0.5 44V0H-0.5V44H0.5Z" fill="#144E72"/>
<path d="M33 22C33 15.95 28.05 11 22 11C15.95 11 11 15.95 11 22C11 27.5 14.9875 32.0375 20.2125 32.8625V25.1625H17.4625V22H20.2125V19.525C20.2125 16.775 21.8625 15.2625 24.3375 15.2625C25.575 15.2625 26.8125 15.5375 26.8125 15.5375V18.2875H25.4375C24.0625 18.2875 23.65 19.1125 23.65 19.9375V22H26.675L26.125 25.1625H23.5125V33C29.0125 32.175 33 27.5 33 22Z" fill="#144E72"/>
</svg>
