<svg width="44" height="44" viewBox="0 0 44 44" fill="none" xmlns="http://www.w3.org/2000/svg">
<path d="M21.9984 12.6499C25.0234 12.6499 25.4359 12.6499 26.6734 12.6499C27.7734 12.6499 28.3234 12.9249 28.7359 13.0624C29.2859 13.3374 29.6984 13.4749 30.1109 13.8874C30.5234 14.2999 30.7984 14.7124 30.9359 15.2624C31.0734 15.6749 31.2109 16.2249 31.3484 17.3249C31.3484 18.5624 31.3484 18.8374 31.3484 21.9999C31.3484 25.1624 31.3484 25.4374 31.3484 26.6749C31.3484 27.7749 31.0734 28.3249 30.9359 28.7374C30.6609 29.2874 30.5234 29.6999 30.1109 30.1124C29.6984 30.5249 29.2859 30.7999 28.7359 30.9374C28.3234 31.0749 27.7734 31.2124 26.6734 31.3499C25.4359 31.3499 25.1609 31.3499 21.9984 31.3499C18.8359 31.3499 18.5609 31.3499 17.3234 31.3499C16.2234 31.3499 15.6734 31.0749 15.2609 30.9374C14.7109 30.6624 14.2984 30.5249 13.8859 30.1124C13.4734 29.6999 13.1984 29.2874 13.0609 28.7374C12.9234 28.3249 12.7859 27.7749 12.6484 26.6749C12.6484 25.4374 12.6484 25.1624 12.6484 21.9999C12.6484 18.8374 12.6484 18.5624 12.6484 17.3249C12.6484 16.2249 12.9234 15.6749 13.0609 15.2624C13.3359 14.7124 13.4734 14.2999 13.8859 13.8874C14.2984 13.4749 14.7109 13.1999 15.2609 13.0624C15.6734 12.9249 16.2234 12.7874 17.3234 12.6499C18.5609 12.6499 18.9734 12.6499 21.9984 12.6499ZM21.9984 10.5874C18.8359 10.5874 18.5609 10.5874 17.3234 10.5874C16.0859 10.5874 15.2609 10.8624 14.5734 11.1374C13.8859 11.4124 13.1984 11.8249 12.5109 12.5124C11.8234 13.1999 11.5484 13.7499 11.1359 14.5749C10.8609 15.2624 10.7234 16.0874 10.5859 17.3249C10.5859 18.5624 10.5859 18.9749 10.5859 21.9999C10.5859 25.1624 10.5859 25.4374 10.5859 26.6749C10.5859 27.9124 10.8609 28.7374 11.1359 29.4249C11.4109 30.1124 11.8234 30.7999 12.5109 31.4874C13.1984 32.1749 13.7484 32.4499 14.5734 32.8624C15.2609 33.1374 16.0859 33.2749 17.3234 33.4124C18.5609 33.4124 18.9734 33.4124 21.9984 33.4124C25.0234 33.4124 25.4359 33.4124 26.6734 33.4124C27.9109 33.4124 28.7359 33.1374 29.4234 32.8624C30.1109 32.5874 30.7984 32.1749 31.4859 31.4874C32.1734 30.7999 32.4484 30.2499 32.8609 29.4249C33.1359 28.7374 33.2734 27.9124 33.4109 26.6749C33.4109 25.4374 33.4109 25.0249 33.4109 21.9999C33.4109 18.9749 33.4109 18.5624 33.4109 17.3249C33.4109 16.0874 33.1359 15.2624 32.8609 14.5749C32.5859 13.8874 32.1734 13.1999 31.4859 12.5124C30.7984 11.8249 30.2484 11.5499 29.4234 11.1374C28.7359 10.8624 27.9109 10.7249 26.6734 10.5874C25.4359 10.5874 25.1609 10.5874 21.9984 10.5874Z" fill="#144E72"/>
<path d="M21.9984 16.0874C18.6984 16.0874 16.0859 18.6999 16.0859 21.9999C16.0859 25.2999 18.6984 27.9124 21.9984 27.9124C25.2984 27.9124 27.9109 25.2999 27.9109 21.9999C27.9109 18.6999 25.2984 16.0874 21.9984 16.0874ZM21.9984 25.8499C19.9359 25.8499 18.1484 24.1999 18.1484 21.9999C18.1484 19.9374 19.7984 18.1499 21.9984 18.1499C24.0609 18.1499 25.8484 19.7999 25.8484 21.9999C25.8484 24.0624 24.0609 25.8499 21.9984 25.8499Z" fill="#144E72"/>
<path d="M28.0484 17.3249C28.8078 17.3249 29.4234 16.7093 29.4234 15.9499C29.4234 15.1905 28.8078 14.5749 28.0484 14.5749C27.289 14.5749 26.6734 15.1905 26.6734 15.9499C26.6734 16.7093 27.289 17.3249 28.0484 17.3249Z" fill="#144E72"/>
<path d="M0 0V-0.5H-0.5V0H0ZM44 0H44.5V-0.5H44V0ZM44 44V44.5H44.5V44H44ZM0 44H-0.5V44.5H0V44ZM0 0.5H44V-0.5H0V0.5ZM43.5 0V44H44.5V0H43.5ZM44 43.5H0V44.5H44V43.5ZM0.5 44V0H-0.5V44H0.5Z" fill="#144E72"/>
</svg>
