<svg width="44" height="44" viewBox="0 0 44 44" fill="none" xmlns="http://www.w3.org/2000/svg">
<path d="M32.45 16.6373C32.175 15.6748 31.4875 14.9873 30.525 14.7123C28.875 14.2998 21.8625 14.2998 21.8625 14.2998C21.8625 14.2998 14.9875 14.2998 13.2 14.7123C12.2375 14.9873 11.55 15.6748 11.275 16.6373C11 18.4248 11 21.9998 11 21.9998C11 21.9998 11 25.5748 11.4125 27.3623C11.6875 28.3248 12.375 29.0123 13.3375 29.2873C14.9875 29.6998 22 29.6998 22 29.6998C22 29.6998 28.875 29.6998 30.6625 29.2873C31.625 29.0123 32.3125 28.3248 32.5875 27.3623C33 25.5748 33 21.9998 33 21.9998C33 21.9998 33 18.4248 32.45 16.6373ZM19.8 25.2998V18.6998L25.575 21.9998L19.8 25.2998Z" fill="#144E72"/>
<path d="M0 0V-0.5H-0.5V0H0ZM44 0H44.5V-0.5H44V0ZM44 44V44.5H44.5V44H44ZM0 44H-0.5V44.5H0V44ZM0 0.5H44V-0.5H0V0.5ZM43.5 0V44H44.5V0H43.5ZM44 43.5H0V44.5H44V43.5ZM0.5 44V0H-0.5V44H0.5Z" fill="#144E72"/>
</svg>
