<svg width="177" height="39" viewBox="0 0 177 39" fill="none" xmlns="http://www.w3.org/2000/svg">
<path d="M75.184 12.6232V29.2639H71.9285V18.4729L67.2446 26.1988H66.8637L62.1797 18.4961V29.2639H58.8984V12.6232H62.275L67.0541 20.4906L71.8075 12.6232H75.184ZM80.7224 24.58C81.1342 26.0701 82.2511 26.8139 84.0732 26.8139C85.2467 26.8139 86.132 26.4176 86.7343 25.6249L89.2075 27.0507C88.0339 28.7466 86.307 29.5934 84.0243 29.5934C82.0581 29.5934 80.483 28.9989 79.294 27.8099C78.1051 26.6209 77.5106 25.123 77.5106 23.3164C77.5106 21.5252 78.0973 20.0325 79.2709 18.8358C80.4444 17.6391 81.95 17.042 83.7875 17.042C85.5298 17.042 86.9685 17.6442 88.1008 18.8487C89.2332 20.0531 89.7994 21.5432 89.7994 23.3164C89.7994 23.7127 89.7608 24.1322 89.681 24.5774H80.7198L80.7224 24.58ZM80.6761 22.202H86.7368C86.5618 21.3939 86.2015 20.7917 85.6559 20.3954C85.1103 19.9991 84.4875 19.8009 83.7901 19.8009C82.9665 19.8009 82.2845 20.0119 81.7467 20.4314C81.2088 20.8509 80.8511 21.4428 80.6761 22.202ZM100.858 12.6232H103.926V29.2639H100.858V27.8613C99.9547 29.0194 98.6705 29.5959 97.008 29.5959C95.4072 29.5959 94.0406 28.9886 92.9083 27.7764C91.7759 26.5643 91.2097 25.0793 91.2097 23.319C91.2097 21.5612 91.7759 20.0737 92.9083 18.8615C94.0406 17.6494 95.4072 17.042 97.008 17.042C98.6731 17.042 99.9547 17.6211 100.858 18.7766V12.6206V12.6232ZM95.2116 25.733C95.837 26.3584 96.6271 26.6723 97.5767 26.6723C98.5264 26.6723 99.3113 26.3584 99.929 25.733C100.547 25.1076 100.855 24.3021 100.855 23.319C100.855 22.3359 100.547 21.5329 99.929 20.905C99.3113 20.2796 98.5264 19.9656 97.5767 19.9656C96.6271 19.9656 95.837 20.2796 95.2116 20.905C94.5862 21.5303 94.2723 22.3359 94.2723 23.319C94.2723 24.3021 94.5862 25.105 95.2116 25.733Z" fill="#0F5081"/>
<path d="M110.15 26.0016H117.163V29.1388H106.871V12.498H117.044V15.6352H110.15V19.1765H116.45V22.2673H110.15V25.999V26.0016ZM130.283 29.1388H126.742L124.173 25.5255L121.582 29.1388H118.04L122.39 23.078L118.231 17.254H121.772L124.173 20.6048L126.574 17.254H130.092L125.934 23.0549L130.283 29.1414V29.1388ZM138.722 16.9195C140.322 16.9195 141.689 17.5268 142.821 18.739C143.954 19.9511 144.52 21.4361 144.52 23.1964C144.52 24.9542 143.954 26.4417 142.821 27.6538C141.689 28.866 140.322 29.4734 138.722 29.4734C137.057 29.4734 135.775 28.8943 134.872 27.7388V33.8948H131.804V17.254H134.872V18.6566C135.775 17.4985 137.059 16.922 138.722 16.922V16.9195ZM135.798 25.6079C136.416 26.2332 137.201 26.5472 138.15 26.5472C139.1 26.5472 139.89 26.2332 140.515 25.6079C141.141 24.9825 141.455 24.1769 141.455 23.1938C141.455 22.2107 141.141 21.4078 140.515 20.7798C139.89 20.1544 139.1 19.8405 138.15 19.8405C137.201 19.8405 136.416 20.1544 135.798 20.7798C135.18 21.4052 134.872 22.2107 134.872 23.1938C134.872 24.1769 135.18 24.9799 135.798 25.6079ZM156.811 27.6513C155.591 28.8634 154.101 29.4708 152.344 29.4708C150.586 29.4708 149.098 28.8634 147.886 27.6513C146.674 26.4391 146.067 24.9542 146.067 23.1938C146.067 21.4361 146.674 19.9486 147.886 18.7364C149.098 17.5242 150.583 16.9169 152.344 16.9169C154.104 16.9169 155.591 17.5242 156.811 18.7364C158.031 19.9486 158.641 21.4335 158.641 23.1938C158.641 24.9516 158.031 26.4391 156.811 27.6513ZM150.048 25.5487C150.658 26.1663 151.422 26.4751 152.341 26.4751C153.26 26.4751 154.029 26.1663 154.647 25.5487C155.265 24.931 155.573 24.1461 155.573 23.1964C155.573 22.2468 155.265 21.4618 154.647 20.8442C154.029 20.2265 153.26 19.9177 152.341 19.9177C151.422 19.9177 150.658 20.2265 150.048 20.8442C149.438 21.4618 149.132 22.2468 149.132 23.1964C149.132 24.1461 149.438 24.931 150.048 25.5487ZM163.871 19.2974C164.156 18.5357 164.627 17.9669 165.286 17.586C165.945 17.2051 166.676 17.0147 167.484 17.0147V20.4375C166.55 20.3269 165.713 20.5173 164.977 21.0089C164.241 21.5004 163.873 22.3162 163.873 23.4563V29.1388H160.806V17.254H163.873V19.2974H163.871ZM176.399 20.2008H173.712V25.1446C173.712 25.5564 173.815 25.8575 174.021 26.0479C174.227 26.2384 174.528 26.3439 174.924 26.3696C175.321 26.3928 175.812 26.3902 176.399 26.3568V29.1388C174.291 29.3756 172.806 29.1774 171.941 28.5443C171.077 27.9112 170.647 26.7763 170.647 25.1446V20.2008H168.578V17.254H170.647V14.8529L173.715 13.9264V17.254H176.401V20.2008H176.399Z" fill="#4EA3D4"/>
<path fill-rule="evenodd" clip-rule="evenodd" d="M0 0H9.83364H19.4665V9.83364H9.83364V19.6647H19.4665V29.4984H9.83364H0V19.6647V9.83364V0Z" fill="#0F5081"/>
<path fill-rule="evenodd" clip-rule="evenodd" d="M48.7986 0H38.9649H29.332V9.83364H38.9649V19.6647H29.332V28.5899V29.4984V39L39.3458 29.4984H48.7986V19.6647V9.83364V0Z" fill="#4EA3D4"/>
</svg>
