<svg width="60" height="60" viewBox="0 0 60 60" fill="none" xmlns="http://www.w3.org/2000/svg">
<path d="M29.999 57.7288C24.5148 57.7289 19.1536 56.1027 14.5935 53.0559C10.0335 50.0091 6.47928 45.6785 4.38046 40.6117C2.28163 35.5449 1.73242 29.9696 2.80227 24.5906C3.87213 19.2117 6.513 14.2708 10.3909 10.3928C14.2689 6.51481 19.2097 3.87383 24.5886 2.80386C29.9675 1.73388 35.5428 2.28297 40.6097 4.38169C45.6765 6.4804 50.0072 10.0345 53.0541 14.5945C56.101 19.1545 57.7273 24.5156 57.7273 29.9999C57.7191 37.3514 54.7951 44.3995 49.5968 49.5978C44.3986 54.7962 37.3506 57.7204 29.999 57.7288V57.7288ZM29.999 4.77101C25.0092 4.77089 20.1314 6.25043 15.9825 9.02254C11.8335 11.7947 8.59976 15.7348 6.69015 20.3448C4.78055 24.9548 4.28084 30.0275 5.25424 34.9214C6.22763 39.8154 8.6304 44.3108 12.1587 47.8392C15.687 51.3676 20.1824 53.7705 25.0763 54.744C29.9702 55.7175 35.043 55.2179 39.653 53.3084C44.263 51.3989 48.2032 48.1653 50.9754 44.0164C53.7477 39.8675 55.2273 34.9897 55.2273 29.9999C55.2197 23.3112 52.5593 16.8987 47.8298 12.169C43.1002 7.43932 36.6877 4.77877 29.999 4.77101V4.77101Z" fill="white"/>
<path d="M24.7344 40.3706C24.5702 40.3707 24.4076 40.3384 24.2559 40.2756C24.1042 40.2128 23.9664 40.1207 23.8503 40.0046C23.7342 39.8886 23.6422 39.7507 23.5794 39.599C23.5166 39.4474 23.4843 39.2848 23.4844 39.1206V20.8796C23.4843 20.6602 23.5421 20.4446 23.6518 20.2545C23.7615 20.0645 23.9192 19.9067 24.1093 19.7969C24.2993 19.6872 24.5149 19.6294 24.7343 19.6294C24.9538 19.6294 25.1693 19.6871 25.3594 19.7969L41.1559 28.9173C41.3459 29.0271 41.5037 29.185 41.6134 29.375C41.7231 29.5651 41.7809 29.7807 41.7809 30.0001C41.7809 30.2196 41.7231 30.4352 41.6134 30.6252C41.5037 30.8153 41.3459 30.9731 41.1559 31.0829L25.3594 40.2034C25.1694 40.3131 24.9538 40.3708 24.7344 40.3706ZM25.9844 23.0446V36.9557L38.0309 30.0001L25.9844 23.0446Z" fill="white"/>
</svg>
