<svg width="30" height="30" viewBox="0 0 30 30" fill="none" xmlns="http://www.w3.org/2000/svg">
<path d="M13.9588 20.0644L19.1789 15.7209C19.2847 15.6329 19.3698 15.5227 19.4282 15.3982C19.4866 15.2736 19.5168 15.1377 19.5168 15.0002C19.5168 14.8626 19.4866 14.7267 19.4282 14.6022C19.3698 14.4776 19.2847 14.3674 19.1789 14.2795L13.9588 9.9359C13.8219 9.82206 13.6554 9.74956 13.4788 9.72688C13.3022 9.70419 13.1228 9.73226 12.9616 9.80781C12.8004 9.88335 12.664 10.0032 12.5684 10.1534C12.4728 10.3037 12.422 10.478 12.4219 10.656V19.3443C12.422 19.5223 12.4728 19.6967 12.5684 19.8469C12.664 19.9971 12.8004 20.117 12.9616 20.1925C13.1228 20.268 13.3022 20.2961 13.4788 20.2734C13.6554 20.2507 13.8219 20.1782 13.9588 20.0644V20.0644Z" fill="white"/>
<path d="M26.25 15.001C26.25 8.7901 21.2109 3.75104 15 3.75104C8.78906 3.75104 3.75 8.7901 3.75 15.001C3.75 21.212 8.78906 26.251 15 26.251C21.2109 26.251 26.25 21.212 26.25 15.001Z" stroke="white" stroke-width="1.5" stroke-miterlimit="10"/>
</svg>
